<svg width="240" height="234" viewBox="0 0 240 234" fill="none" xmlns="http://www.w3.org/2000/svg">
<g clip-path="url(#clip0_21_318)">
<path d="M240 0H0V234H240V0Z" fill="black"/>
<path d="M193 44H45V189H193V44Z" fill="#FCF6FA"/>
<path d="M181.44 127.403V106.597L165.5 117L181.44 127.403ZM194.2 139.045C194.198 139.316 194.178 139.586 194.14 139.854L194.09 140.127L193.98 140.644L193.88 140.946C193.832 141.102 193.775 141.255 193.71 141.404L193.57 141.697C193.504 141.839 193.434 141.978 193.36 142.116L193.17 142.408C192.942 142.762 192.673 143.089 192.37 143.383L192.11 143.627C191.994 143.729 191.874 143.827 191.75 143.92L191.46 144.134L191.36 144.212L123.54 188.302C122.492 188.985 121.26 189.349 120 189.349C118.74 189.349 117.508 188.985 116.46 188.302L48.64 144.202L48.54 144.124C48.3115 143.97 48.0943 143.801 47.89 143.617L47.63 143.374L47.31 143.042L47.1 142.769C46.8371 142.437 46.6124 142.077 46.43 141.697L46.29 141.395C46.2273 141.244 46.1706 141.091 46.12 140.936L46.02 140.644C45.98 140.468 45.94 140.293 45.92 140.117L45.86 139.844C45.8217 139.576 45.8016 139.306 45.8 139.035V94.9553C45.8001 94.6845 45.8202 94.414 45.86 94.146L45.91 93.8827L46.02 93.3562L46.12 93.0638C46.3571 92.2817 46.7667 91.5596 47.32 90.948L47.63 90.6165L47.89 90.3727C48.0948 90.1897 48.3119 90.0204 48.54 89.8658L48.64 89.7878L116.46 45.708C117.508 45.0264 118.74 44.6626 120 44.6626C121.26 44.6626 122.492 45.0264 123.54 45.708L191.36 89.7878L191.46 89.8658L191.76 90.0803L192.11 90.3727C192.21 90.4507 192.28 90.5287 192.37 90.6165C192.675 90.9097 192.944 91.237 193.17 91.5915L193.36 91.884C193.435 92.0211 193.505 92.161 193.57 92.3033L193.71 92.5957C193.78 92.7517 193.83 92.9077 193.88 93.054L193.98 93.3562C194.02 93.5317 194.06 93.7072 194.08 93.8827L194.14 94.146C194.179 94.4141 194.199 94.6845 194.2 94.9553V139.045ZM120 0C53.73 0 0 52.377 0 117C0 181.613 53.73 234 120 234C186.28 234 240 181.623 240 117C240 52.3867 186.28 0 120 0ZM120 102.297L97.45 117L120 131.723L142.55 117L120 102.297ZM126.38 142.506V171.512L176.34 139.045L154.02 124.488L126.38 142.506ZM63.66 139.035L113.62 171.503V142.506L85.98 124.478L63.66 139.035ZM176.34 94.965L126.38 62.4975V91.494L154.02 109.532L176.34 94.965ZM113.62 91.494V62.4975L63.66 94.965L85.98 109.522L113.62 91.494ZM58.56 106.597V127.403L74.5 117L58.56 106.597Z" fill="black"/>
</g>
<defs>
<clipPath id="clip0_21_318">
<rect width="240" height="234" rx="40" fill="white"/>
</clipPath>
</defs>
</svg>
