<svg width="240" height="234" viewBox="0 0 240 234" fill="none" xmlns="http://www.w3.org/2000/svg">
<g clip-path="url(#clip0_21_308)">
<path d="M240 0H0V234H240V0Z" fill="#FCF6FA"/>
<path fill-rule="evenodd" clip-rule="evenodd" d="M119.755 39C75.7187 39 40 73.6781 40 116.432C40 150.635 62.9969 179.613 94.3119 190.064C98.2263 190.539 99.6942 188.163 99.6942 186.263C99.6942 184.363 99.6942 179.613 99.6942 172.962C77.6758 177.712 72.7829 162.511 72.7829 162.511C69.3578 153.485 63.9755 151.11 63.9755 151.11C56.6361 146.36 64.4648 146.36 64.4648 146.36C72.2936 146.835 76.6972 154.435 76.6972 154.435C84.0367 166.311 95.2905 162.986 99.6942 161.086C100.183 155.86 102.63 152.535 104.587 150.635C86.9725 148.735 68.3792 142.084 68.3792 112.157C68.3792 103.606 71.315 96.9552 76.6972 91.2547C76.208 89.8296 73.2722 81.7538 77.6758 71.3029C77.6758 71.3029 84.526 69.4027 99.6942 79.3786C106.055 77.4784 112.905 77.0034 119.755 77.0034C126.605 77.0034 133.456 77.9535 139.817 79.3786C154.985 69.4027 161.835 71.3029 161.835 71.3029C166.239 81.7538 163.303 89.8296 162.813 91.7297C167.706 96.9552 171.131 104.081 171.131 112.632C171.131 142.559 152.538 148.735 134.924 150.635C137.859 153.01 140.306 157.761 140.306 164.886C140.306 175.337 140.306 183.413 140.306 186.263C140.306 188.163 141.774 190.539 145.688 190.064C177.492 179.613 200 150.635 200 116.432C199.511 73.6781 163.792 39 119.755 39Z" fill="#231E1B"/>
</g>
<rect x="0.5" y="0.5" width="239" height="233" rx="39.5" stroke="black" stroke-opacity="0.1"/>
<defs>
<clipPath id="clip0_21_308">
<rect width="240" height="234" rx="40" fill="white"/>
</clipPath>
</defs>
</svg>
