<svg width="600" height="600" viewBox="0 0 600 600" fill="none" xmlns="http://www.w3.org/2000/svg">
<path d="M423.962 452.306C422.902 449.506 421.175 447.115 419.438 444.96C417.7 442.711 415.901 440.514 414.07 438.351L414.068 438.348C408.145 431.376 401.773 424.817 395.207 418.5L395.199 418.492C379.978 404.057 365.428 392.484 348.181 381.156L348.172 381.15L348.163 381.144C339.649 375.729 330.769 370.865 321.941 366.031C318.15 363.955 314.369 361.884 310.63 359.777L310.622 359.772C299.779 353.747 289.028 347.634 278.77 340.766C278.166 340.336 277.577 339.919 277.002 339.512C271.309 335.481 266.911 332.368 261.536 326.939C257.237 322.419 254.946 319.67 252.431 313.763C252.407 313.704 252.379 313.637 252.349 313.563C251.898 312.456 250.795 309.749 250.213 307.447C249.423 304.133 249.151 302.881 249.033 300.563C248.881 292.35 250.357 286.246 252.915 277.691C253.545 275.624 254.2 273.55 254.857 271.469C256.793 265.341 258.751 259.141 260.181 252.821C261.472 247.163 262.006 241.331 261.555 235.503C261.318 230.847 260.254 225.863 256.709 222.08C253.241 218.225 248.256 216.249 243.468 215.441C236.299 214.211 229.079 215.334 222.237 216.399C221.28 216.548 220.331 216.696 219.39 216.836L219.381 216.837L219.371 216.839C214.052 217.7 204.611 219.223 201.506 219.648C198.912 220 196.107 220.348 193.523 220.487C190.903 220.628 188.671 220.542 187.155 220.112L187.147 220.109L187.14 220.107C185.839 219.753 185.077 219.429 184.56 219.105C184.085 218.806 183.754 218.466 183.386 217.954C183.359 217.911 183.331 217.863 183.302 217.811C182.4 215.142 182.864 212.046 184.232 208.815C185.609 205.56 187.827 202.354 190.094 199.655C194.879 194.066 200.511 189.243 206.219 184.383C214.022 177.746 222.033 171.9 231.53 165.642L231.532 165.64C234.282 163.821 236.998 162.055 239.839 160.523L239.85 160.517L239.86 160.511C240.433 160.19 241.032 159.897 241.668 159.591C241.756 159.549 241.845 159.507 241.934 159.464C242.481 159.202 243.057 158.927 243.62 158.631L243.643 158.619L243.666 158.606C245.901 157.334 246.917 156.46 248.434 155.155C248.689 154.935 248.959 154.703 249.251 154.455L251.501 152.543L248.63 151.853C246.155 151.259 243.596 151.436 241.247 152.11L241.222 152.117L241.198 152.125C239.626 152.635 238.167 153.393 236.842 154.081C236.77 154.118 236.699 154.155 236.628 154.192L236.62 154.196L236.611 154.201C233.731 155.742 230.995 157.499 228.329 159.266C219.428 164.985 210.898 171.251 202.711 177.927L202.697 177.939L202.683 177.951C201.925 178.601 201.123 179.281 200.29 179.987C195.332 184.19 189.233 189.361 184.361 195.144C178.686 201.878 174.383 209.777 175.755 218.282L175.755 218.282L175.757 218.292C176.34 221.763 178.5 224.144 181.139 225.647C183.748 227.131 186.882 227.803 189.692 227.924L189.696 227.924C194.593 228.122 199.486 227.403 204.198 226.71C205.46 226.524 206.709 226.34 207.942 226.177L207.958 226.175L207.974 226.172C210.527 225.777 213.057 225.367 215.582 224.958C218.951 224.412 222.311 223.868 225.702 223.362L225.709 223.361L225.717 223.36C231.326 222.465 238.225 221.855 242.763 222.863L242.778 222.866L242.794 222.87C246.721 223.654 249.389 225.106 251.129 227.021C252.863 228.929 253.809 231.444 254.019 234.614L254.02 234.623C254.293 238.414 254.381 242.153 253.874 245.809C252.843 252.86 250.713 259.692 248.552 266.623C248.329 267.339 248.105 268.056 247.882 268.774C247.77 269.129 247.657 269.485 247.544 269.842C244.223 280.307 240.668 291.511 241.771 303.002L241.772 303.015L241.774 303.028C242.269 307.38 243.482 311.606 245.149 315.598C246.31 318.458 247.623 321.413 249.487 324.083C257.89 336.122 270.418 344.238 282.255 351.906C282.541 352.091 282.827 352.276 283.112 352.461L283.128 352.471L283.145 352.482C294.226 359.258 305.623 365.544 316.985 371.811C322.847 375.044 328.699 378.272 334.495 381.559L334.502 381.564C345.406 387.663 355.8 394.637 365.903 402.036L365.912 402.042C376.413 409.621 388.58 419.409 398.772 429.508L398.774 429.51C403.289 433.966 407.623 438.591 411.711 443.427L411.721 443.439L411.732 443.451C413.012 444.903 414.084 446.278 415.165 447.665C415.254 447.779 415.343 447.893 415.432 448.007C416.599 449.502 417.792 451.012 419.235 452.566L419.247 452.579L419.259 452.592C420.142 453.497 421.074 454.347 422.032 455.15L426.272 458.702L424.709 454.336H424.73L424.343 453.314C424.238 453.023 424.125 452.717 424 452.408L423.962 452.306Z" fill="black" stroke="black" stroke-width="3"/>
<g clip-path="url(#clip0_2_12203)">
<path d="M425.406 454.296L425.719 454.364L425.811 453.224C425.982 451.107 426.1 448.76 426.202 446.606C426.216 446.303 426.23 446.003 426.244 445.709C426.328 443.903 426.403 442.29 426.492 441.107L426.493 441.107L426.493 441.095C426.651 438.646 426.783 436.194 426.912 433.749L426.914 433.718L426.914 433.687C426.911 433.405 426.935 433.143 426.964 432.831C426.977 432.685 426.991 432.528 427.005 432.353C427.042 431.854 427.061 431.257 426.912 430.64L426.899 430.585L426.879 430.532C426.592 429.744 426.088 429.164 425.441 428.84C424.805 428.523 424.11 428.491 423.495 428.654C422.312 428.967 421.218 430.092 421.401 431.64C421.37 432.24 421.336 432.857 421.302 433.478C421.261 434.224 421.219 434.974 421.184 435.702C421.138 436.522 421.088 437.385 421.036 438.282C420.825 441.958 420.58 446.218 420.37 450.51C419.356 450.504 418.33 450.436 417.271 450.365L417.271 450.365L417.261 450.365C414.922 450.231 411.417 449.784 407.816 449.326C405.717 449.058 403.586 448.787 401.632 448.57L401.628 448.57C399.454 448.339 398.765 448.301 397.648 448.244L397.6 448.241L397.551 448.244C397.407 448.25 397.259 448.248 397.07 448.244L397.043 448.244C396.868 448.241 396.657 448.238 396.44 448.249C395.991 448.24 395.515 448.349 395.095 448.62C393.969 449.326 393.687 450.887 394.404 451.961L394.416 451.979L394.429 451.996C394.739 452.421 395.218 452.857 395.905 453.001C395.917 453.004 395.929 453.007 395.943 453.009C395.987 453.022 396.029 453.033 396.067 453.043L396.095 453.05C396.167 453.069 396.225 453.085 396.282 453.102C397.181 453.366 398.087 453.539 398.95 453.696L398.95 453.696L398.961 453.698C402.504 454.302 406.064 454.769 409.601 455.232L409.607 455.233C409.608 455.233 409.608 455.233 409.609 455.233C412.594 455.636 415.59 455.919 418.59 456.098L418.617 456.099L418.644 456.099C418.953 456.101 419.269 456.117 419.619 456.134C419.848 456.145 420.093 456.157 420.36 456.166C420.995 456.189 421.7 456.192 422.381 456.098C423.059 456.005 423.779 455.807 424.402 455.379C424.807 455.101 425.148 454.741 425.406 454.296Z" fill="black" stroke="black" stroke-width="2"/>
</g>
<g clip-path="url(#clip1_2_12203)">
<path d="M237.791 178.178L238.236 178.406C238.236 178.406 238.236 178.406 238.236 178.407C238.206 178.466 238.177 178.526 238.145 178.592L238.132 178.618C238.112 178.659 238.091 178.703 238.068 178.748C238.063 178.764 238.057 178.777 238.052 178.787C237.845 179.288 237.44 179.602 237.032 179.795L237.023 179.799L237.013 179.804C236.07 180.202 234.894 179.738 234.521 178.772C234.372 178.405 234.358 178.012 234.438 177.652C234.465 177.451 234.505 177.254 234.543 177.075L234.55 177.043C234.587 176.863 234.621 176.703 234.644 176.545L234.647 176.521L234.653 176.497C234.918 175.419 235.082 174.759 235.716 172.676L235.716 172.674C236.29 170.818 236.955 168.787 237.611 166.781C238.745 163.316 239.854 159.925 240.43 157.638L240.431 157.633L240.431 157.633L240.434 157.624C240.742 156.445 241.046 155.286 241.252 154.116C236.924 153.067 232.615 151.981 228.914 151.047C228.041 150.827 227.201 150.616 226.404 150.415C225.691 150.243 224.969 150.062 224.248 149.882C223.636 149.729 223.025 149.576 222.422 149.429C222.422 149.429 222.422 149.429 222.422 149.429L222.42 149.429C222.415 149.428 222.407 149.427 222.397 149.426C221.123 149.346 220.368 148.3 220.297 147.268C220.26 146.741 220.395 146.188 220.744 145.732C221.098 145.27 221.643 144.943 222.359 144.827L222.387 144.822L222.416 144.821C222.969 144.795 223.491 144.909 223.962 145.036C224.111 145.077 224.253 145.118 224.389 145.157C224.704 145.247 224.992 145.33 225.295 145.386L225.31 145.389L225.325 145.392C227.702 145.98 230.083 146.571 232.456 147.187L232.461 147.188L232.461 147.188C233.614 147.501 235.193 147.881 236.949 148.303C237.236 148.372 237.527 148.442 237.821 148.513C239.918 149.019 242.193 149.575 244.231 150.139L244.782 150.292L244.728 150.417L242.811 165.791L242.337 165.632M237.791 178.178C238.194 177.396 238.519 176.582 238.835 175.765C240.089 172.418 241.213 169.025 242.337 165.632L242.337 165.632M237.791 178.178C237.758 178.243 237.726 178.309 237.695 178.375C237.673 178.419 237.652 178.462 237.631 178.506L237.791 178.178ZM242.337 165.632L242.811 165.789L242.811 165.79L244.096 150.626C246.152 151.646 245.568 154.053 245.092 156.017C245.004 156.378 244.92 156.724 244.857 157.044C244.122 159.935 243.286 162.8 242.337 165.632Z" fill="black" stroke="black"/>
</g>
<defs>
<clipPath id="clip0_2_12203">
<rect width="21" height="37" fill="white" transform="translate(424.709 428.873) rotate(56.7446)"/>
</clipPath>
<clipPath id="clip1_2_12203">
<rect width="21" height="37" fill="white" transform="translate(220.242 146.152) rotate(-22.3962)"/>
</clipPath>
</defs>
</svg>
