<svg width="67" height="50" viewBox="0 0 67 50" fill="none" xmlns="http://www.w3.org/2000/svg">
<path d="M59.4868 7.80545C57.1831 5.32182 54.3872 3.34519 51.2774 2.00144C48.1676 0.657687 44.812 -0.0237161 41.4243 0.000630125C34.7453 0.000630125 27.9489 2.86276 23.6039 7.49355C22.8071 7.40339 22.0058 7.35807 21.2039 7.35778C8.1065 7.35778 0 18.366 0 28.5816C0.0439823 34.0928 2.16874 39.3838 5.94868 43.395C7.89941 45.4871 10.2614 47.1537 12.8865 48.2903C15.5116 49.4269 18.3433 50.0089 21.2039 49.9999H41.4243C55.1492 49.9999 66.3126 38.7495 66.3126 24.9195C66.2573 18.5622 63.822 12.4562 59.4868 7.80545ZM20.8259 46.3745C17.9741 46.3878 15.1619 45.7073 12.6316 44.3918C10.1014 43.0763 7.9291 41.1652 6.30199 38.8234C4.67488 36.4815 3.64179 33.7791 3.29177 30.9491C2.94175 28.1191 3.28531 25.2464 4.29283 22.5788C5.30035 19.9111 6.94161 17.5285 9.0751 15.6363C11.2086 13.7441 13.7703 12.3991 16.5394 11.7172C19.3085 11.0354 22.2019 11.0372 24.9702 11.7224C27.7385 12.4077 30.2985 13.7558 32.4297 15.6506L32.5141 15.724L39.7986 23.1986C40.3649 23.7975 40.6725 24.5954 40.6546 25.4194C40.6368 26.2435 40.295 27.0273 39.7032 27.6011C39.1115 28.1749 38.3175 28.4925 37.4932 28.4851C36.6689 28.4777 35.8808 28.1459 35.2994 27.5615L28.0847 20.1567C26.4585 18.7574 24.4651 17.8537 22.3408 17.5528C20.2166 17.2518 18.0506 17.5663 16.0997 18.4588C14.1487 19.3513 12.4947 20.7845 11.3336 22.5885C10.1725 24.3924 9.55304 26.4914 9.54872 28.6366C9.54872 34.7976 14.7965 40.0118 21.0094 40.0118H22.4516V40.0522C24.5177 42.9033 30.2719 46.3929 30.2719 46.3929L20.8259 46.3745ZM56.852 40.0485C54.908 42.0816 52.5731 43.7007 49.9875 44.8086C47.4019 45.9165 44.6189 46.4904 41.8059 46.4956C36.4114 46.4956 30.9031 44.0848 26.6938 39.8907L17.0644 30.2402C16.6334 29.8003 16.3412 29.2434 16.2242 28.6387C16.1072 28.0341 16.1705 27.4084 16.4063 26.8395C16.6421 26.2706 17.04 25.7835 17.5504 25.4389C18.0609 25.0943 18.6614 24.9073 19.2773 24.9012C19.6959 24.8989 20.1106 24.9812 20.4966 25.1433C20.8825 25.3053 21.2317 25.5438 21.5232 25.8442L31.0866 35.4324C34.1214 38.4743 38.0187 40.2026 41.7766 40.2026C43.7595 40.1983 45.7208 39.7903 47.5409 39.0037C49.3611 38.217 51.002 37.0681 52.3638 35.6269C55.1869 32.7246 56.7667 28.836 56.7675 24.7874C56.7675 20.7974 55.1824 16.9707 52.3607 14.1493C49.539 11.3279 45.712 9.74289 41.7215 9.74289C38.5582 9.74289 35.9453 10.3557 33.3948 12.172C33.3655 12.15 32.6609 11.6913 31.8939 11.218C31.4095 10.9244 30.8884 10.6309 30.4774 10.4071C30.0664 10.1832 28.7122 9.51539 27.9342 9.19615C27.7397 9.11542 27.4902 9.02369 27.3838 8.98699H27.4058C31.3691 5.2809 36.3013 3.48289 41.7179 3.48289C47.3689 3.48775 52.7872 5.73404 56.7837 9.72884C60.7803 13.7236 63.0287 19.1406 63.0355 24.7911C63.048 30.4906 60.8284 35.9686 56.852 40.0522V40.0485Z" fill="black"/>
</svg>
