<svg width="53" height="50" viewBox="0 0 53 50" fill="none" xmlns="http://www.w3.org/2000/svg">
<path d="M23.4891 0.000134362C17.7402 0.000134362 12.6329 3.52078 10.8531 8.72016C7.15693 9.44475 3.96598 11.6462 2.09613 14.7658C-0.787043 19.5061 -0.127949 25.466 3.7337 29.5287C2.54037 32.9332 2.94976 36.6558 4.85445 39.7394C7.72021 44.4963 13.4866 46.9356 19.128 45.8017C21.628 48.4843 25.2196 50.0137 28.9883 49.9999C34.7372 49.9999 39.8445 46.4793 41.6273 41.2799C45.3292 40.5525 48.5143 38.3511 50.3668 35.237C53.2674 30.4967 52.6083 24.5368 48.7466 20.4713V20.4547C49.94 17.0502 49.5306 13.3249 47.6259 10.2274C44.7601 5.48714 38.9938 3.04785 33.3697 4.18176C30.8553 1.50463 27.2578 -0.0164594 23.4891 0.000134362ZM23.4891 3.24975L23.4717 3.26634C25.7858 3.26634 28.0098 4.02689 29.7897 5.43459C29.7171 5.46778 29.5748 5.55351 29.4703 5.60329L19.0032 11.3447C18.469 11.6324 18.1496 12.1744 18.1496 12.7663V26.2432L13.6462 23.7707V12.6308C13.6433 7.45626 18.0479 3.25804 23.4891 3.24975ZM36.0961 7.17417C39.6267 7.16864 42.8903 8.958 44.6527 11.8702C45.7909 13.7674 46.2177 15.9855 45.8257 18.1343C45.7531 18.0846 45.6138 18.0154 45.5237 17.9656L35.0595 12.2076C34.5253 11.92 33.8691 11.92 33.3349 12.2076L21.0705 18.9474V14.0025L31.195 8.43253C32.6845 7.61114 34.3743 7.17694 36.0961 7.17417ZM10.2114 12.2906V24.1247C10.2114 24.7165 10.5308 25.242 11.065 25.5462L23.3091 32.2667L18.7883 34.7558L8.67836 29.2024C3.97469 26.6082 2.36616 20.8806 5.08383 16.4031C6.23652 14.5058 8.0483 13.0511 10.2114 12.2906ZM33.6688 15.2221L43.7962 20.7755C48.5143 23.3669 50.1142 29.089 47.3907 33.5748L47.4081 33.5914C46.2525 35.4887 44.4349 36.9434 42.2834 37.6901V25.8532C42.2834 25.2614 41.9641 24.7193 41.4298 24.4317L29.1683 17.6918L33.6688 15.2221ZM26.23 19.3014L31.3924 22.1445V27.8168L26.23 30.6599L21.0676 27.8168V22.1445L26.23 19.3014ZM34.3453 23.7707L38.8486 26.2432V37.3665C38.8486 42.5465 34.4353 46.7475 29.0057 46.7475V46.7309C26.7091 46.7309 24.4676 45.9676 22.7052 44.5627C22.7777 44.5295 22.9374 44.4438 23.0245 44.394L33.4887 38.6553C34.023 38.3677 34.3598 37.8256 34.3424 37.2338L34.3453 23.7707ZM31.4069 31.0526V35.9975L21.2795 41.5509C16.5614 44.1257 10.5482 42.6019 7.82473 38.1298H7.84215C6.68656 36.2492 6.27426 34.0146 6.66624 31.8657C6.73882 31.9155 6.88109 31.9846 6.9682 32.0344L17.4324 37.7924C17.9666 38.0801 18.6228 38.0801 19.1571 37.7924L31.4069 31.0526Z" fill="black"/>
</svg>
