<svg width="53" height="50" viewBox="0 0 53 50" fill="none" xmlns="http://www.w3.org/2000/svg">
<path d="M1.15921 34.3985L1.12417 34.3715M1.15921 34.3985L24.9236 49.6381C25.2908 49.874 25.7225 50 26.1641 50C26.6057 50 27.0374 49.874 27.4045 49.6381L1.12417 34.3715M1.15921 34.3985L1.37261 34.1211L1.36076 34.1119M1.15921 34.3985L1.34815 34.1038L1.36076 34.1119M1.12417 34.3715C1.04412 34.3183 0.968011 34.2597 0.896408 34.1963L1.12417 34.3715ZM1.36076 34.1119L1.33757 34.0941L1.32804 34.0868L1.31802 34.0801C1.2523 34.0364 1.18988 33.9885 1.13116 33.9367L1.04933 33.861L0.957047 33.7667L0.89557 33.6879L0.895595 33.6879L0.892646 33.6842C0.817159 33.5901 0.752783 33.4885 0.700538 33.3815C0.700219 33.3808 0.699901 33.3802 0.699583 33.3795L0.655625 33.2858C0.638277 33.2443 0.622542 33.2023 0.60845 33.1597L0.608483 33.1597L0.606888 33.1551L0.578003 33.0718C0.565602 33.0177 0.55774 32.9807 0.553797 32.9465L0.551702 32.9284L0.547731 32.9106L0.529711 32.8297C0.519776 32.7574 0.514551 32.6845 0.514062 32.6116L0.514062 17.38C0.514062 17.38 0.514062 17.3799 0.514062 17.3799C0.514094 17.306 0.51948 17.2323 0.530186 17.1591L0.545678 17.0786L0.579017 16.9212L0.606887 16.8408L0.607095 16.8409L0.61074 16.8291C0.678051 16.6101 0.794441 16.4068 0.952742 16.2337L1.05135 16.1297L1.13083 16.0562C1.18999 16.0043 1.25275 15.9561 1.3187 15.912L1.32836 15.9056L1.33758 15.8985L1.36073 15.8807L25.1125 0.655923L25.1126 0.655881C25.4228 0.456934 25.7887 0.35 26.1641 0.35C26.5394 0.35 26.9053 0.456934 27.2156 0.655881L27.2156 0.655923L50.9674 15.8807L50.9905 15.8985L50.9963 15.9029L51.0023 15.9071L51.0966 15.9736L51.2091 16.0664L51.209 16.0665L51.2183 16.0737C51.2221 16.0766 51.2268 16.0806 51.236 16.0894L51.2539 16.107L51.2541 16.1072C51.2612 16.1142 51.2703 16.1233 51.2802 16.1328L51.282 16.1345C51.369 16.2169 51.4452 16.3087 51.5094 16.4077L51.5109 16.41L51.57 16.4998C51.5898 16.5358 51.6082 16.5725 51.6253 16.6097L51.6253 16.6097L51.6284 16.6162L51.6754 16.7129C51.6882 16.7415 51.6979 16.7699 51.7127 16.8127C51.7152 16.8199 51.7178 16.8276 51.7206 16.8357C51.7208 16.8363 51.721 16.8369 51.7212 16.8375L51.7497 16.9225C51.7624 16.9775 51.7704 17.0149 51.7743 17.0494L51.7766 17.0689L51.781 17.088L51.7986 17.1643C51.8085 17.2361 51.8137 17.3085 51.8141 17.3809C51.8141 17.3812 51.8141 17.3814 51.8141 17.3817V32.614C51.8141 32.6142 51.8141 32.6144 51.8141 32.6146C51.8136 32.6896 51.8081 32.7646 51.7976 32.839L51.7823 32.9212L51.749 33.0758L51.7201 33.1618L51.72 33.1617L51.7177 33.1692C51.7056 33.2083 51.6912 33.2467 51.6747 33.2844L51.6284 33.3797L51.6284 33.3797L51.6264 33.3839C51.6085 33.4222 51.5895 33.4599 51.5693 33.4972L51.5109 33.586L51.5104 33.5867C51.4456 33.6856 51.3693 33.7776 51.2828 33.8607C51.2821 33.8614 51.2814 33.862 51.2807 33.8627L51.1984 33.9387C51.1661 33.9666 51.1327 33.9933 51.0982 34.0188L51.0993 34.018L51.3056 34.3008L51.0974 34.0194L50.9977 34.0921L50.9976 34.092L50.9905 34.0975L50.9674 34.1153M1.36076 34.1119L25.1126 49.3434L25.1129 49.3436C25.4229 49.5429 25.7887 49.65 26.1641 49.65C26.5394 49.65 26.9053 49.5429 27.2153 49.3436L27.2156 49.3434L50.9674 34.1153M50.9674 34.1153L50.9555 34.1245L51.1689 34.4018L50.98 34.1072L50.9674 34.1153ZM47.5035 28.8874L48.0429 29.2346V28.5931V21.4029V20.7614L47.5035 21.1086L41.918 24.7037L41.4608 24.998L41.918 25.2923L47.5035 28.8874ZM26.3534 19.6226L26.1641 19.5009L25.9748 19.6226L18.0731 24.7036L17.6156 24.9978L18.073 25.2923L25.9746 30.38L26.1641 30.502L26.3535 30.38L34.2552 25.2923L34.7125 24.9978L34.255 24.7036L26.3534 19.6226ZM28.2104 33.5178L28.0496 33.6211V33.8122V43.836V44.4761L28.5885 44.1307L46.0947 32.9108L46.5537 32.6166L46.0952 32.3217L38.2742 27.2913L38.0849 27.1695L37.8955 27.2912L28.2104 33.5178ZM6.23295 32.3183L5.77447 32.6132L6.23343 32.9074L23.7396 44.1273L24.2785 44.4727V43.8327V33.8122V33.6212L24.1178 33.5178L14.4327 27.2879L14.2433 27.1661L14.054 27.2879L6.23295 32.3183ZM46.0953 17.6775L46.5535 17.3826L46.0947 17.0886L28.5885 5.86861L28.0496 5.52325V6.16329V16.1837V16.3747L28.2102 16.4781L37.8954 22.7114L38.0848 22.8333L38.2742 22.7114L46.0953 17.6775ZM24.1178 16.4781L24.2785 16.3748V16.1837V6.16329V5.52325L23.7396 5.86861L6.23343 17.0886L5.77447 17.3827L6.23295 17.6776L14.054 22.7081L14.2433 22.8298L14.4327 22.708L24.1178 16.4781ZM4.82465 21.1086L4.28522 20.7614V21.4029V28.5931V29.2346L4.82465 28.8874L10.4101 25.2923L10.8673 24.998L10.4101 24.7037L4.82465 21.1086Z" fill="black" stroke="white" stroke-width="0.7"/>
</svg>
