<svg width="48" height="48" viewBox="0 0 48 48" fill="none" xmlns="http://www.w3.org/2000/svg">
<path d="M12.7935 19.7017C12.7935 19.0062 14.8444 17.569 23.048 17.3836C33.3026 17.1517 33.7796 19.7017 33.3026 19.7017M12.7935 19.7017C13.1115 20.8608 15.6075 23.0862 23.048 22.7153C32.3487 22.2517 32.8257 19.7017 33.3026 19.7017M12.7935 19.7017C12.7935 21.9853 13.0647 26.1145 14.1081 29.4379M33.3026 19.7017C33.3026 20.4614 33.2804 21.2385 33.2329 22.0199M14.1081 29.4379C14.7594 31.5121 15.7114 33.2724 17.0861 34.0741C20.6633 36.1604 24.9559 36.3923 28.533 34.0741C31.6217 32.0726 32.9325 26.9602 33.2329 22.0199M14.1081 29.4379C11.9211 29.8242 7.64235 31.1533 8.02392 33.3787C8.50087 36.1604 18.2339 38 23.7396 38C29.2246 38 37.5951 35.9286 38.7874 33.6105C39.8751 31.496 36.8559 30.1184 32.0863 29.6547C31.2307 29.5716 41.6254 27.3366 38.7874 22.7153C37.7224 20.981 35.2103 21.3244 33.2329 22.0199" stroke="black"/>
<path d="M14.6768 19.5071C14.6768 18.9341 16.3482 17.75 23.034 17.5972C31.3913 17.4063 31.78 19.5071 31.3913 19.5071" stroke="black" stroke-width="0.2"/>
<path d="M15.1533 19.4926C15.1533 19.0661 16.7181 18.1846 22.9771 18.0709C30.801 17.9287 31.1649 19.4926 30.801 19.4926" stroke="black" stroke-width="0.2"/>
<path d="M14.6768 19.4929C14.9356 20.3236 16.9673 21.9184 23.0235 21.6526C30.5938 21.3204 30.982 19.4929 31.3702 19.4929" stroke="black" stroke-width="0.2"/>
<path d="M15.1533 19.4929C15.3973 20.1426 17.3129 21.39 23.0231 21.1821C30.1608 20.9222 30.5268 19.4929 30.8929 19.4929" stroke="black" stroke-width="0.2"/>
<path d="M16.1084 19.9697C16.1084 19.5432 17.4835 18.6617 22.9839 18.548C29.8594 18.4058 30.1791 19.9697 29.8594 19.9697" stroke="black" stroke-width="0.2"/>
<path d="M16.1084 19.9697C16.3228 20.3317 18.0062 21.0266 23.0243 20.9108C29.2968 20.766 29.6185 19.9697 29.9401 19.9697" stroke="black" stroke-width="0.2"/>
<path d="M22.2227 20.8977C22.2227 20.6338 22.4176 20.278 22.3025 20.0077C22.2088 19.7878 22.1809 19.5316 22.078 19.3051C21.8168 18.7298 21.6459 18.1012 21.2349 17.6188C20.9292 17.26 20.7234 16.641 20.5065 16.2136C20.2845 15.7762 19.8702 15.3062 20.0251 14.7407C20.1261 14.3718 20.4861 13.8944 20.8083 13.7076C21.2032 13.4787 21.4911 13.0667 21.7462 12.6823C21.8281 12.5589 21.9982 12.3095 21.9982 12.1619C21.9982 12.0117 22.1249 11.5616 22.2002 11.4358C22.2583 11.339 22.2676 11.021 22.2676 10.8998C22.2676 10.7428 22.3353 10.5981 22.3798 10.4496C22.5155 9.99666 22.7716 9.59534 22.9411 9.14062" stroke="#212121" stroke-opacity="0.67" stroke-width="0.5" stroke-linecap="round"/>
<path d="M22.8061 20.8038C22.8924 20.7926 23.0161 20.32 23.0306 20.2183C23.0599 20.0116 23.1204 19.8469 23.1204 19.6328C23.1204 19.4425 23.1412 19.1916 23.0206 19.0343C22.888 18.8614 22.831 18.6153 22.7163 18.4253C22.5493 18.1487 22.373 17.8652 22.2324 17.5718C21.9617 17.007 21.6836 16.475 21.6836 15.8127C21.6836 15.6846 21.6387 15.5743 21.6387 15.4405C21.6387 15.3185 21.723 15.2092 21.7634 15.0996C21.8596 14.8387 22.1708 14.6269 22.402 14.5063C22.7572 14.3211 23.3346 14.1061 23.5469 13.7074C23.6418 13.5293 23.6918 13.3724 23.7714 13.1896C23.92 12.8486 23.8564 12.3593 23.6392 12.068C23.5036 11.886 23.2259 11.6218 23.1678 11.4096C23.0949 11.1437 23.1204 10.8474 23.1204 10.5691C23.1204 10.1529 23.4116 9.89119 23.5694 9.56201" stroke="#212121" stroke-opacity="0.67" stroke-width="0.5" stroke-linecap="round"/>
<path d="M23.9734 19.4925C23.9127 18.6694 23.4985 17.9607 23.1203 17.2702C22.9048 16.8767 22.773 16.3391 22.8958 15.891C22.969 15.6238 23.2215 15.5014 23.3997 15.3341C23.6455 15.1033 23.9774 14.9287 24.2528 14.7408C24.7596 14.3951 25.4102 13.7896 25.4102 13.0988C25.4102 12.9241 25.4532 12.7586 25.4102 12.6017C25.3765 12.4785 25.3485 12.352 25.2979 12.2348C25.2584 12.1431 25.1759 12.1038 25.1408 12.0214C25.085 11.8905 24.9781 11.7991 24.9163 11.6701C24.7803 11.3864 24.7162 11.0755 24.6219 10.7749C24.4977 10.379 24.3302 9.9888 24.5122 9.60913" stroke="#212121" stroke-opacity="0.67" stroke-width="0.5" stroke-linecap="round"/>
<path d="M25.4998 9.93677C25.2323 9.93677 25.1855 10.4205 25.1855 10.616C25.1855 10.9067 25.4824 11.1833 25.6795 11.3888C25.906 11.6252 26.1056 11.8802 26.3305 12.1149C26.5274 12.3203 26.8918 12.8473 26.8918 13.1454C26.8918 13.273 26.9816 13.4306 26.9816 13.5695C26.9816 13.771 26.9464 13.9586 26.9367 14.1524C26.9227 14.4287 26.6665 14.8221 26.4428 14.9722C26.3317 15.0466 26.222 15.3324 26.1035 15.3677C25.9643 15.4092 25.8903 15.5407 25.7693 15.6149C25.495 15.7832 25.3158 16.129 25.1855 16.4008" stroke="#212121" stroke-opacity="0.67" stroke-width="0.5" stroke-linecap="round"/>
<path d="M26.1285 12.7942C26.1285 13.2921 26.142 13.7638 25.7918 14.1292C25.5462 14.3854 25.3018 14.6608 24.9835 14.8083C24.6363 14.9693 24.1664 15.2322 23.8835 15.511C23.5691 15.8207 23.2549 15.9614 23.2549 16.4478" stroke="#212121" stroke-opacity="0.67" stroke-width="0.5" stroke-linecap="round"/>
<path d="M23.3893 14.4805C23.2463 14.4991 22.9601 14.8405 22.8505 14.9489C22.691 15.1065 22.4498 15.2739 22.3566 15.4928C22.1759 15.9168 22.2413 16.1846 22.3067 16.6794C22.3332 16.8802 22.4283 17.2159 22.5362 17.3846" stroke="#212121" stroke-opacity="0.67" stroke-width="0.5" stroke-linecap="round"/>
<path d="M22.7158 11.7634C22.7158 11.9597 22.6709 12.1657 22.6709 12.3724C22.6709 12.7279 22.4702 13.0453 22.399 13.3794C22.3293 13.7064 21.8124 13.83 21.6157 14.0352C21.5042 14.1515 21.3796 14.3075 21.2565 14.4073C21.1333 14.5073 20.9686 14.5837 20.8649 14.704C20.6629 14.9381 20.6953 15.2465 20.6953 15.5575" stroke="#212121" stroke-opacity="0.67" stroke-width="0.5" stroke-linecap="round"/>
<path d="M19.7534 9C19.6142 9.01613 19.3623 9.42402 19.3967 9.58551C19.4278 9.73145 19.602 9.84915 19.6736 9.98366C19.736 10.1009 19.8738 10.1814 19.9555 10.2855C20.0208 10.3688 20.0722 10.4575 20.155 10.5223C20.3077 10.6418 20.457 10.814 20.5616 10.9777C20.7705 11.3045 20.9134 11.5891 21.0006 11.9874C21.0256 12.1015 20.9461 12.1951 20.9233 12.3023C20.8888 12.4645 20.8075 12.5652 20.7312 12.7004C20.5344 13.0495 20.0866 13.2065 19.933 13.567C19.8268 13.8162 19.3919 14.0461 19.1797 14.1993C19.0528 14.291 18.8474 14.5294 18.813 14.6912C18.7796 14.8477 18.7207 15.0132 18.7207 15.183C18.7207 15.2816 18.7551 15.6333 18.833 15.6982C18.8996 15.7539 19.0879 16.0275 19.1348 16.1198C19.2186 16.285 19.3062 16.4602 19.4192 16.6116C19.5717 16.8163 19.933 17.2157 19.933 17.4782" stroke="#212121" stroke-opacity="0.67" stroke-width="0.5" stroke-linecap="round"/>
<path d="M20.0222 10.9204C20.0222 11.1818 20.2225 11.5355 20.1544 11.7844C20.0961 11.9972 19.8464 12.2071 19.7328 12.3933C19.5054 12.7661 19.0936 13.0103 18.8897 13.4134C18.8007 13.5893 18.6451 13.7361 18.5055 13.8818C18.2825 14.1144 18.1043 14.5639 18.049 14.8811C18.0078 15.1178 17.9786 15.2349 18.1264 15.4275C18.2311 15.5642 18.2644 15.8179 18.3159 15.9792" stroke="#212121" stroke-opacity="0.67" stroke-width="0.5" stroke-linecap="round"/>
<path d="M41.9377 1H5.18728C2.90589 1 1 2.80441 1 5.08844V42.0366C1 44.3274 2.9071 46.125 5.18728 46.125H41.9377C44.2191 46.125 46.125 44.3206 46.125 42.0366V5.08844C46.125 2.79759 44.2179 1 41.9377 1Z" stroke="black" stroke-width="2"/>
</svg>
