<svg width="56" height="52" viewBox="0 0 56 52" fill="none" xmlns="http://www.w3.org/2000/svg">
<path d="M9.26462 19.4512C9.26462 18.2521 12.8007 15.7741 26.9449 15.4544C44.6252 15.0547 45.4475 19.4512 44.6252 19.4512M9.26462 19.4512C9.81285 21.4496 14.1164 25.2865 26.9449 24.6471C42.9805 23.8477 43.8028 19.4512 44.6252 19.4512M9.26462 19.4512C9.26462 23.3885 9.73224 30.5078 11.5313 36.2377M44.6252 19.4512C44.6252 20.7611 44.5868 22.1009 44.5049 23.448M11.5313 36.2377C12.6541 39.8139 14.2956 42.8489 16.6657 44.2312C22.8332 47.8283 30.2343 48.228 36.4018 44.2312C41.7271 40.7803 43.987 31.9658 44.5049 23.448M11.5313 36.2377C7.76047 36.9038 0.383363 39.1953 1.04123 43.0322C1.86357 47.8283 18.6446 51 28.1372 51C37.5941 51 52.026 47.4287 54.0818 43.4319C55.957 39.7863 50.7515 37.411 42.5281 36.6116C41.053 36.4682 58.9749 32.6148 54.0818 24.6471C52.2456 21.657 47.9143 22.249 44.5049 23.448" stroke="black" stroke-width="2"/>
<path d="M12.5127 19.1158C12.5127 18.1279 15.3945 16.0864 26.9218 15.8229C41.3308 15.4936 42.001 19.1158 41.3308 19.1158" stroke="black" stroke-width="0.5"/>
<path d="M13.335 19.091C13.335 18.3557 16.0328 16.8359 26.8243 16.6398C40.3136 16.3947 40.9411 19.091 40.3136 19.091" stroke="black" stroke-width="0.5"/>
<path d="M12.5127 19.0913C12.9589 20.5235 16.4618 23.2732 26.9036 22.815C39.9559 22.2421 40.6252 19.0913 41.2945 19.0913" stroke="black" stroke-width="0.5"/>
<path d="M13.335 19.0913C13.7557 20.2115 17.0584 22.3621 26.9035 22.0037C39.2099 21.5556 39.841 19.0913 40.4721 19.0913" stroke="black" stroke-width="0.5"/>
<path d="M14.9805 19.9135C14.9805 19.1782 17.3513 17.6584 26.8347 17.4623C38.689 17.2172 39.2404 19.9135 38.689 19.9135" stroke="black" stroke-width="0.5"/>
<path d="M14.9805 19.9136C15.3502 20.5376 18.2526 21.7358 26.9044 21.5361C37.7191 21.2865 38.2737 19.9136 38.8283 19.9136" stroke="black" stroke-width="0.5"/>
<path d="M25.5212 21.5132C25.5212 21.0582 25.8573 20.4447 25.6588 19.9788C25.4973 19.5996 25.4491 19.158 25.2717 18.7674C24.8213 17.7754 24.5267 16.6916 23.8181 15.86C23.291 15.2414 22.9362 14.1741 22.5622 13.4372C22.1795 12.683 21.4652 11.8727 21.7322 10.8977C21.9064 10.2618 22.527 9.43855 23.0826 9.11653C23.7635 8.72194 24.2599 8.01161 24.6997 7.34879C24.8409 7.13603 25.1341 6.70608 25.1341 6.45145C25.1341 6.19248 25.3526 5.41646 25.4825 5.19967C25.5825 5.03267 25.5986 4.48449 25.5986 4.27542C25.5986 4.00478 25.7154 3.75532 25.7921 3.49923C26.0261 2.71836 26.4676 2.02642 26.7598 1.24243" stroke="#212121" stroke-opacity="0.67" stroke-width="0.5" stroke-linecap="round"/>
<path d="M26.5274 21.3514C26.6762 21.332 26.8896 20.5173 26.9145 20.3419C26.9651 19.9855 27.0693 19.7016 27.0693 19.3324C27.0693 19.0044 27.1053 18.5717 26.8973 18.3005C26.6687 18.0024 26.5703 17.5782 26.3726 17.2506C26.0847 16.7736 25.7807 16.2849 25.5382 15.779C25.0715 14.8052 24.5921 13.888 24.5921 12.746C24.5921 12.5252 24.5146 12.3351 24.5146 12.1044C24.5146 11.894 24.6601 11.7055 24.7297 11.5166C24.8956 11.0667 25.4322 10.7015 25.8307 10.4937C26.4431 10.1742 27.4387 9.80366 27.8048 9.11626C27.9683 8.8091 28.0545 8.53864 28.1918 8.22341C28.448 7.63552 28.3384 6.7919 27.9639 6.28966C27.73 5.97591 27.2512 5.52038 27.151 5.15453C27.0255 4.69601 27.0693 4.18515 27.0693 3.70533C27.0693 2.98785 27.5715 2.53654 27.8435 1.96899" stroke="#212121" stroke-opacity="0.67" stroke-width="0.5" stroke-linecap="round"/>
<path d="M28.5408 19.0904C28.4361 17.6712 27.722 16.4493 27.0699 15.2588C26.6983 14.5804 26.4712 13.6535 26.6828 12.8809C26.809 12.4202 27.2445 12.2091 27.5516 11.9207C27.9755 11.5227 28.5476 11.2216 29.0225 10.8978C29.8964 10.3016 31.0181 9.25776 31.0181 8.06667C31.0181 7.7655 31.0921 7.48022 31.0181 7.20972C30.9599 6.99729 30.9117 6.77921 30.8245 6.5771C30.7563 6.41901 30.6141 6.3512 30.5536 6.20919C30.4574 5.98339 30.2731 5.82582 30.1665 5.60349C29.932 5.11424 29.8215 4.5782 29.659 4.06008C29.4449 3.37747 29.156 2.70466 29.4698 2.05005" stroke="#212121" stroke-opacity="0.67" stroke-width="0.5" stroke-linecap="round"/>
<path d="M31.1728 2.61523C30.7115 2.61523 30.6309 3.44922 30.6309 3.78625C30.6309 4.28759 31.1427 4.76439 31.4824 5.1188C31.873 5.52625 32.2171 5.96599 32.6049 6.37058C32.9445 6.72478 33.5726 7.63331 33.5726 8.1473C33.5726 8.36734 33.7274 8.63908 33.7274 8.87862C33.7274 9.22598 33.6669 9.54936 33.65 9.88364C33.626 10.36 33.1843 11.0382 32.7985 11.2969C32.607 11.4254 32.4179 11.918 32.2136 11.9789C31.9736 12.0504 31.8459 12.2771 31.6372 12.4051C31.1644 12.6953 30.8554 13.2915 30.6309 13.7601" stroke="#212121" stroke-opacity="0.67" stroke-width="0.5" stroke-linecap="round"/>
<path d="M32.2563 7.5415C32.2563 8.40003 32.2795 9.21324 31.6757 9.84316C31.2522 10.2849 30.8309 10.7598 30.2822 11.0142C29.6835 11.2918 28.8734 11.7449 28.3856 12.2256C27.8435 12.7597 27.3018 13.0023 27.3018 13.8408" stroke="#212121" stroke-opacity="0.67" stroke-width="0.5" stroke-linecap="round"/>
<path d="M27.5336 10.4492C27.2871 10.4814 26.7936 11.07 26.6046 11.2568C26.3297 11.5285 25.9138 11.8173 25.753 12.1945C25.4416 12.9256 25.5542 13.3873 25.667 14.2405C25.7128 14.5867 25.8768 15.1654 26.0627 15.4563" stroke="#212121" stroke-opacity="0.67" stroke-width="0.5" stroke-linecap="round"/>
<path d="M26.3727 5.76465C26.3727 6.10303 26.2953 6.45829 26.2953 6.81453C26.2953 7.42752 25.9492 7.97483 25.8265 8.55087C25.7064 9.11465 24.8151 9.32777 24.476 9.68151C24.2838 9.88204 24.0689 10.151 23.8567 10.3231C23.6442 10.4955 23.3604 10.6272 23.1815 10.8346C22.8333 11.2382 22.889 11.7699 22.889 12.3062" stroke="#212121" stroke-opacity="0.67" stroke-width="0.5" stroke-linecap="round"/>
<path d="M21.2639 1C21.024 1.02782 20.5896 1.73106 20.6489 2.0095C20.7025 2.26112 21.0028 2.46405 21.1263 2.69596C21.234 2.89815 21.4715 3.03684 21.6123 3.21641C21.7249 3.35996 21.8135 3.51293 21.9564 3.6247C22.2195 3.83062 22.477 4.12762 22.6574 4.40987C23.0175 4.97335 23.2639 5.46403 23.4143 6.1507C23.4574 6.34734 23.3204 6.50885 23.281 6.69358C23.2214 6.97336 23.0813 7.14697 22.9499 7.38004C22.6104 7.98198 21.8384 8.25263 21.5736 8.8741C21.3905 9.30382 20.6406 9.70016 20.2747 9.96436C20.056 10.1223 19.7019 10.5335 19.6425 10.8123C19.585 11.0823 19.4834 11.3676 19.4834 11.6603C19.4834 11.8303 19.5428 12.4367 19.6769 12.5487C19.7919 12.6446 20.1166 13.1164 20.1973 13.2755C20.3418 13.5603 20.4929 13.8624 20.6876 14.1235C20.9507 14.4763 21.5736 15.165 21.5736 15.6176" stroke="#212121" stroke-opacity="0.67" stroke-width="0.5" stroke-linecap="round"/>
<path d="M21.7281 4.31104C21.7281 4.76179 22.0736 5.37154 21.956 5.80061C21.8555 6.16759 21.4251 6.52938 21.2292 6.85049C20.8371 7.49324 20.1271 7.91433 19.7755 8.60926C19.622 8.91265 19.3539 9.16573 19.1132 9.41686C18.7288 9.81792 18.4215 10.5929 18.3262 11.1397C18.255 11.5479 18.2047 11.7497 18.4595 12.0819C18.6401 12.3175 18.6975 12.7549 18.7863 13.0331" stroke="#212121" stroke-opacity="0.67" stroke-width="0.5" stroke-linecap="round"/>
</svg>
