<?xml version="1.0" encoding="utf-8"?>
<!-- Generator: Adobe Illustrator 28.0.0, SVG Export Plug-In . SVG Version: 6.00 Build 0)  -->
<svg version="1.1" id="Layer_1" xmlns="http://www.w3.org/2000/svg" xmlns:xlink="http://www.w3.org/1999/xlink" x="0px" y="0px"
	 viewBox="0 0 140.56 153" style="enable-background:new 0 0 140.56 153;" xml:space="preserve">
<style type="text/css">
	.st0{fill:none;stroke:#000000;stroke-width:5;stroke-miterlimit:10;}
</style>
<g>
	<g>
		<path d="M86.97,103.62l-1.42,0.93l-0.03,0.02c-5.21,2.44-10.99,3.59-16.77,3.09c-11.81-0.76-22.86-7.57-30.48-16.38
			c-15.73-17.95-21.09-41.31-17.75-64.6C21,21.39,21.74,16.02,20,10.98L18.64,7l4.54,0.65c17.25,1.76,31.62,8.59,44.23,20.44
			c4.02,3.75,7.68,7.83,11,12.2c4.91,6.5,9.56,13.5,12.49,21.21c3.91,10.26,5.06,21.98,1.71,32.49c-0.79,2.59-1.91,5.1-3.41,7.37
			l-0.03,0.03L86.97,103.62L86.97,103.62z M86.4,102.92l2.06-2.22c1.08-1.8,2.19-4.7,2.6-7.11c1.92-10.1-2.24-20.21-7.23-28.77
			C78.77,56.14,72.61,48,65.95,40.41c-12.43-14.56-25.41-22.52-43.94-27.5l3.18-3.33c1.17,5.89-0.38,11.89-1.46,17.57
			c-3.55,16.23-0.61,29.05,8.62,42.69c6.7,9.9,13.99,19.67,22.99,27.59c5.96,5.1,13.77,9.14,21.86,8.42
			c2.71-0.22,5.43-0.98,7.89-2.1l-0.05,0.03L86.4,102.92L86.4,102.92z"/>
	</g>
	<g>
		<path d="M84.73,101.55l-1.16,1.26l-0.02,0.02l-0.02,0.02c-3.85,3.33-8.3,6-13.3,7.73c-16.1,5.44-32.55-2.34-43.13-14.62
			C16.32,84.08,12.17,68.24,11.85,52.73C11.46,48.05,11.4,43.17,9,39.11L7.14,36c4.8-0.96,9.77-2.15,14.67-2.62
			c11.18-1.25,22.67,1.3,32.76,6.15c7.73,3.85,14.76,9.02,20.87,15.1c8.07,7.73,13.66,18.76,13.63,30.03
			c0.01,4.93-0.74,9.75-2.63,14.2l-0.02,0.03L84.73,101.55L84.73,101.55z M84.01,101.01l1.57-2.64c0.65-1.76,1.21-4.45,1.27-6.63
			c0.5-11.51-7.19-20.92-15.1-28.3c-4.96-4.4-10.24-8.55-15.85-12.09c-14.33-9.48-27.1-11.74-44.11-10.72l2.15-3.94
			c0.55,1.41,0.9,2.83,1.12,4.22c0.99,8.85-1.12,17.85,1.09,26.48c2.05,9.64,8.62,17.32,15.99,23.46
			c11.02,8.89,22.81,18.19,37.49,17.13C74.9,107.35,80.42,104.89,84.01,101.01L84.01,101.01z"/>
	</g>
	<path class="st0" d="M80.9,112.56"/>
	<path class="st0" d="M79.37,107.76"/>
	<path class="st0" d="M116.34,57.14c-2.72-6.48-11.59-7.02-16.44-4c-3.19,1.98-3.78,7.91-5.15,9.04"/>
	<path class="st0" d="M75.39,114.83"/>
	<path class="st0" d="M73.35,110.23"/>
	<g>
		<path d="M83.98,96.63l-0.61,1.32c0,0.01-0.02,0.03-0.02,0.04c-2.22,3.67-5.06,6.99-8.59,9.76c-15.56,11.96-36.85,4.55-48.98-8.76
			c-6.04-6.46-9.92-14.43-12.99-22.52c-1.48-3.52-3.05-7.55-5.86-9.94L4.24,64.2c2.83-1.6,5.87-3.56,8.78-5.04
			c9.33-5.05,20.43-6.54,30.9-5.11c8.31,1.21,16.29,4.15,23.57,8.29c7.26,4.36,13.35,11.4,15.76,19.54
			c1.22,4.01,1.81,8.08,1.43,12.14l-0.01,0.03L83.98,96.63L83.98,96.63z M83.13,96.33l0.57-2.51c0.15-3.4-1.09-7.66-3.09-10.74
			c-4.55-7.11-12.29-10.84-19.75-14.02c-5.94-2.45-12.18-4.36-18.46-5.66c-11.16-2.32-21.34-0.38-32.34,3.72l0.83-4.41
			c2.98,3.9,3.81,8.23,5.03,12.69c1.97,8.01,5.91,15.6,12.81,20.25c3.27,2.25,7.01,3.98,10.66,5.45
			C53.67,106.77,74.36,113.06,83.13,96.33L83.13,96.33z"/>
	</g>
	<g>
		<path d="M137.43,61.62c-1.34-1.11-3.38-1.32-5.1-1.57c-4.58-0.45-9.47-0.44-14,0.24c-1.85,0.42-2.08,2.59-2.4,4.79
			c-0.54,5.86,0.35,11.68-0.63,17.68l0.07-0.79c0.29,0.67,0.07,1.38,0.02,2.07c-1.59,7.81-7.72,13.71-13.62,18.47
			c-6.26,4.82-13.63,8.4-21.45,9.84c-6.05,0.74-12.37-0.61-17.65-3.49c-15.06-8.4-20.72-25.99-22.98-41.92
			C38.16,56.47,38.41,45.52,42,35.46c2.54-7.5,7.12-14.01,10.54-20.97c1.62-3.09,2.09-6.59,2.3-9.99c4.2,2.35,8.48,4.56,12.56,7.31
			c6.31,4.2,12.01,9.54,16.46,15.72c6.75,9.17,11.06,20.01,14.03,30.86c4.22,14.86,3.8,31.09-1.6,45.63
			c-5.36,14.63-16.08,27.28-29.76,34.79c-8.35,4.9-17.95,7.21-27.33,9.12l1.53-5.56l0.27-1l-0.02,1.55
			c-0.47-2.62-0.41-5.32,0.14-7.84c3.65-15.74,22.09-26.41,37.33-26.91l0.1,0.9c-4.27,0.86-8.32,2.46-12.07,4.5
			c-9.7,5.39-21.23,15.92-18.6,27.89l0.16,0.64c-0.1,0.48-0.29,1.44-0.38,1.92l-4.28-4.29c31.62-8.29,50.65-36.8,47.85-69.07
			c-0.11-1.26-0.44-3.81-0.65-5.06c-2.24-11.95-6.15-23.75-12.59-34.05C72.45,22.5,64.51,15.56,55.54,9.9l3.3-1.59
			c-0.5,2.93-1.65,5.56-2.96,7.92c-3.89,6.73-8.72,12.9-11.28,20.2c-1.77,4.73-2.75,9.74-2.89,14.8
			c-0.34,17.65,7.7,42.64,24.46,50.78c4.04,1.99,8.51,2.74,12.92,2.37l-0.45,0.07c3.31-0.64,6.58-1.58,9.66-2.99
			c7.26-3.26,18.3-10.94,20.4-18.9c1.8-6.82,0.5-14.59,2.99-21.5c1.57-4.29,4.88-5.61,9.23-5.05c4.02,0.28,7.95,0.85,11.82,2.02
			c1.96,0.68,4.05,1.29,5.38,3.07C138.15,61.07,137.43,61.62,137.43,61.62L137.43,61.62z"/>
	</g>
</g>
</svg>
