<svg width="600" height="600" viewBox="0 0 600 600" fill="none" xmlns="http://www.w3.org/2000/svg">
<mask id="path-1-outside-1_2_12203" maskUnits="userSpaceOnUse" x="174.999" y="151.992" width="251" height="306" fill="black">
<rect fill="white" x="174.999" y="151.992" width="251" height="306"/>
<path d="M422.559 452.836C421.584 450.261 419.977 448.017 418.261 445.89C416.537 443.659 414.749 441.475 412.925 439.32C407.044 432.397 400.71 425.875 394.167 419.581C379.009 405.204 364.528 393.687 347.358 382.41C335.231 374.696 322.41 368.138 309.894 361.083C299.041 355.053 288.237 348.91 277.918 342C271.347 337.329 266.496 334.082 260.459 327.984C256.089 323.389 253.664 320.49 251.046 314.339C250.681 313.439 249.41 310.396 248.757 307.805C247.959 304.462 247.658 303.098 247.534 300.615C247.374 292.153 248.905 285.866 251.479 277.257C253.988 269.031 256.819 260.885 258.719 252.487C259.982 246.952 260.499 241.266 260.058 235.599C259.829 231.068 258.803 226.501 255.604 223.094C252.441 219.571 247.815 217.696 243.216 216.92C235.343 215.568 227.405 217.16 219.611 218.319C214.303 219.179 204.834 220.707 201.707 221.135C196.511 221.839 190.281 222.558 186.745 221.555C184.015 220.811 183.053 220.071 182.143 218.795C182.063 218.671 181.991 218.543 181.923 218.411C179.674 212.033 184.304 204.215 188.95 198.684C193.825 192.99 199.55 188.091 205.247 183.24C213.109 176.554 221.171 170.671 230.704 164.389C233.454 162.57 236.22 160.77 239.127 159.202C240.362 158.511 241.673 157.959 242.924 157.303C245.389 155.899 246.223 155.059 248.28 153.312C246.099 152.788 243.806 152.936 241.661 153.552C240.145 154.044 238.73 154.791 237.319 155.523C234.501 157.031 231.811 158.758 229.149 160.522C220.297 166.209 211.81 172.443 203.659 179.089C193.016 188.223 174.706 202.359 177.236 218.044C178.218 223.894 184.468 226.197 189.756 226.425C195.794 226.669 201.779 225.482 207.745 224.69C213.658 223.774 219.559 222.762 225.48 221.879C231.093 220.983 238.245 220.323 243.088 221.399C251.375 223.054 255.063 227.673 255.516 234.515C255.792 238.346 255.889 242.209 255.359 246.02C254.201 253.946 251.679 261.593 249.314 269.223C245.878 280.068 242.158 291.337 243.264 302.858C243.741 307.049 244.912 311.14 246.536 315.027C247.69 317.87 248.953 320.698 250.717 323.225C259.124 335.27 271.784 343.332 283.928 351.202C300.701 361.459 318.14 370.557 335.235 380.255C346.207 386.393 356.655 393.403 366.789 400.825C377.333 408.435 389.565 418.273 399.828 428.442C404.37 432.925 408.736 437.584 412.857 442.459C415.699 445.682 417.543 448.541 420.334 451.545C421.176 452.408 422.07 453.224 422.996 454C422.855 453.608 422.715 453.22 422.555 452.836H422.559Z"/>
</mask>
<path d="M422.559 452.836C421.584 450.261 419.977 448.017 418.261 445.89C416.537 443.659 414.749 441.475 412.925 439.32C407.044 432.397 400.71 425.875 394.167 419.581C379.009 405.204 364.528 393.687 347.358 382.41C335.231 374.696 322.41 368.138 309.894 361.083C299.041 355.053 288.237 348.91 277.918 342C271.347 337.329 266.496 334.082 260.459 327.984C256.089 323.389 253.664 320.49 251.046 314.339C250.681 313.439 249.41 310.396 248.757 307.805C247.959 304.462 247.658 303.098 247.534 300.615C247.374 292.153 248.905 285.866 251.479 277.257C253.988 269.031 256.819 260.885 258.719 252.487C259.982 246.952 260.499 241.266 260.058 235.599C259.829 231.068 258.803 226.501 255.604 223.094C252.441 219.571 247.815 217.696 243.216 216.92C235.343 215.568 227.405 217.16 219.611 218.319C214.303 219.179 204.834 220.707 201.707 221.135C196.511 221.839 190.281 222.558 186.745 221.555C184.015 220.811 183.053 220.071 182.143 218.795C182.063 218.671 181.991 218.543 181.923 218.411C179.674 212.033 184.304 204.215 188.95 198.684C193.825 192.99 199.55 188.091 205.247 183.24C213.109 176.554 221.171 170.671 230.704 164.389C233.454 162.57 236.22 160.77 239.127 159.202C240.362 158.511 241.673 157.959 242.924 157.303C245.389 155.899 246.223 155.059 248.28 153.312C246.099 152.788 243.806 152.936 241.661 153.552C240.145 154.044 238.73 154.791 237.319 155.523C234.501 157.031 231.811 158.758 229.149 160.522C220.297 166.209 211.81 172.443 203.659 179.089C193.016 188.223 174.706 202.359 177.236 218.044C178.218 223.894 184.468 226.197 189.756 226.425C195.794 226.669 201.779 225.482 207.745 224.69C213.658 223.774 219.559 222.762 225.48 221.879C231.093 220.983 238.245 220.323 243.088 221.399C251.375 223.054 255.063 227.673 255.516 234.515C255.792 238.346 255.889 242.209 255.359 246.02C254.201 253.946 251.679 261.593 249.314 269.223C245.878 280.068 242.158 291.337 243.264 302.858C243.741 307.049 244.912 311.14 246.536 315.027C247.69 317.87 248.953 320.698 250.717 323.225C259.124 335.27 271.784 343.332 283.928 351.202C300.701 361.459 318.14 370.557 335.235 380.255C346.207 386.393 356.655 393.403 366.789 400.825C377.333 408.435 389.565 418.273 399.828 428.442C404.37 432.925 408.736 437.584 412.857 442.459C415.699 445.682 417.543 448.541 420.334 451.545C421.176 452.408 422.07 453.224 422.996 454C422.855 453.608 422.715 453.22 422.555 452.836H422.559Z" fill="black"/>
<path d="M422.559 452.836V453.836H424.006L423.494 452.482L422.559 452.836ZM418.261 445.89L417.47 446.501L417.476 446.51L417.483 446.518L418.261 445.89ZM412.925 439.32L413.688 438.674L413.687 438.672L412.925 439.32ZM394.167 419.581L394.86 418.86L394.855 418.855L394.167 419.581ZM347.358 382.41L347.907 381.574L347.901 381.57L347.895 381.566L347.358 382.41ZM309.894 361.083L310.385 360.212L310.38 360.209L309.894 361.083ZM277.918 342L277.339 342.815L277.35 342.823L277.362 342.831L277.918 342ZM260.459 327.984L259.734 328.673L259.741 328.68L259.748 328.687L260.459 327.984ZM251.046 314.339L250.119 314.715L250.122 314.723L250.126 314.731L251.046 314.339ZM248.757 307.805L247.784 308.037L247.787 308.049L248.757 307.805ZM247.534 300.615L246.534 300.634L246.534 300.649L246.535 300.665L247.534 300.615ZM251.479 277.257L250.522 276.965L250.521 276.97L251.479 277.257ZM258.719 252.487L257.744 252.264L257.744 252.266L258.719 252.487ZM260.058 235.599L259.059 235.649L259.06 235.663L259.061 235.677L260.058 235.599ZM255.604 223.094L254.86 223.762L254.867 223.771L254.875 223.779L255.604 223.094ZM243.216 216.92L243.047 217.905L243.05 217.906L243.216 216.92ZM219.611 218.319L219.464 217.33L219.451 217.332L219.611 218.319ZM201.707 221.135L201.841 222.126L201.843 222.126L201.707 221.135ZM186.745 221.555L187.019 220.593L187.008 220.59L186.745 221.555ZM182.143 218.795L181.303 219.338L181.316 219.358L181.329 219.376L182.143 218.795ZM181.923 218.411L180.98 218.744L181.003 218.809L181.034 218.87L181.923 218.411ZM188.95 198.684L188.191 198.034L188.185 198.041L188.95 198.684ZM205.247 183.24L204.599 182.479L204.599 182.479L205.247 183.24ZM230.704 164.389L231.254 165.224L231.256 165.223L230.704 164.389ZM239.127 159.202L239.602 160.083L239.609 160.079L239.616 160.075L239.127 159.202ZM242.924 157.303L243.388 158.188L243.403 158.18L243.418 158.172L242.924 157.303ZM248.28 153.312L248.927 154.074L250.427 152.799L248.513 152.34L248.28 153.312ZM241.661 153.552L241.385 152.591L241.368 152.595L241.352 152.601L241.661 153.552ZM237.319 155.523L236.859 154.636L236.847 154.642L237.319 155.523ZM229.149 160.522L229.689 161.363L229.701 161.356L229.149 160.522ZM203.659 179.089L203.027 178.314L203.018 178.322L203.008 178.33L203.659 179.089ZM177.236 218.044L176.249 218.203L176.25 218.209L177.236 218.044ZM189.756 226.425L189.713 227.424L189.716 227.425L189.756 226.425ZM207.745 224.69L207.876 225.681L207.887 225.68L207.898 225.678L207.745 224.69ZM225.48 221.879L225.628 222.868L225.638 222.866L225.48 221.879ZM243.088 221.399L242.871 222.375L242.882 222.377L242.892 222.379L243.088 221.399ZM255.516 234.515L254.518 234.581L254.518 234.587L255.516 234.515ZM255.359 246.02L256.349 246.165L256.35 246.158L255.359 246.02ZM249.314 269.223L250.267 269.525L250.269 269.519L249.314 269.223ZM243.264 302.858L242.269 302.954L242.27 302.962L242.271 302.971L243.264 302.858ZM246.536 315.027L247.462 314.651L247.458 314.642L246.536 315.027ZM250.717 323.225L249.897 323.797L249.897 323.797L250.717 323.225ZM283.928 351.202L283.384 352.041L283.395 352.048L283.406 352.055L283.928 351.202ZM335.235 380.255L334.741 381.124L334.746 381.127L335.235 380.255ZM366.789 400.825L366.199 401.632L366.204 401.636L366.789 400.825ZM399.828 428.442L399.124 429.153L399.125 429.154L399.828 428.442ZM412.857 442.459L412.093 443.105L412.1 443.112L412.107 443.12L412.857 442.459ZM420.334 451.545L419.601 452.225L419.609 452.234L419.617 452.243L420.334 451.545ZM422.996 454L422.353 454.767L425.18 457.134L423.937 453.663L422.996 454ZM422.555 452.836V451.836H421.053L421.632 453.222L422.555 452.836ZM423.494 452.482C422.462 449.754 420.772 447.41 419.039 445.262L417.483 446.518C419.182 448.625 420.707 450.768 421.623 453.19L423.494 452.482ZM419.052 445.279C417.317 443.032 415.519 440.837 413.688 438.674L412.162 439.966C413.979 442.113 415.757 444.285 417.47 446.501L419.052 445.279ZM413.687 438.672C407.778 431.717 401.419 425.17 394.86 418.86L393.474 420.301C400.001 426.581 406.31 433.078 412.163 439.967L413.687 438.672ZM394.855 418.855C379.655 404.439 365.128 392.885 347.907 381.574L346.809 383.246C363.928 394.49 378.363 405.969 393.479 420.306L394.855 418.855ZM347.895 381.566C335.738 373.834 322.853 367.239 310.385 360.212L309.403 361.955C321.967 369.036 334.723 375.558 346.821 383.254L347.895 381.566ZM310.38 360.209C299.529 354.18 288.756 348.055 278.474 341.169L277.362 342.831C287.718 349.766 298.554 355.926 309.408 361.958L310.38 360.209ZM278.497 341.185C271.911 336.503 267.135 333.306 261.17 327.28L259.748 328.687C265.858 334.859 270.784 338.156 277.339 342.815L278.497 341.185ZM261.184 327.295C256.855 322.743 254.518 319.944 251.966 313.948L250.126 314.731C252.809 321.035 255.323 324.035 259.734 328.673L261.184 327.295ZM251.972 313.963C251.599 313.043 250.359 310.07 249.726 307.56L247.787 308.049C248.461 310.722 249.763 313.836 250.119 314.715L251.972 313.963ZM249.729 307.573C248.933 304.237 248.652 302.949 248.533 300.565L246.535 300.665C246.664 303.247 246.984 304.687 247.784 308.037L249.729 307.573ZM248.534 300.596C248.376 292.291 249.872 286.124 252.437 277.543L250.521 276.97C247.938 285.609 246.371 292.015 246.534 300.634L248.534 300.596ZM252.435 277.548C254.93 269.371 257.783 261.153 259.694 252.708L257.744 252.266C255.854 260.616 253.047 268.69 250.522 276.965L252.435 277.548ZM259.694 252.709C260.977 247.088 261.505 241.3 261.055 235.522L259.061 235.677C259.493 241.231 258.987 246.816 257.744 252.264L259.694 252.709ZM261.057 235.549C260.824 230.927 259.772 226.072 256.333 222.41L254.875 223.779C257.834 226.93 258.835 231.209 259.059 235.649L261.057 235.549ZM256.348 222.426C252.981 218.676 248.111 216.732 243.383 215.934L243.05 217.906C247.518 218.66 251.901 220.466 254.86 223.762L256.348 222.426ZM243.385 215.934C235.313 214.548 227.175 216.183 219.464 217.33L219.758 219.309C227.634 218.137 235.372 216.588 243.047 217.905L243.385 215.934ZM219.451 217.332C214.135 218.193 204.683 219.718 201.571 220.144L201.843 222.126C204.985 221.695 214.471 220.165 219.771 219.307L219.451 217.332ZM201.573 220.144C198.977 220.495 196.156 220.846 193.55 220.986C190.92 221.128 188.618 221.047 187.019 220.593L186.472 222.517C188.408 223.066 190.99 223.127 193.658 222.984C196.35 222.839 199.241 222.478 201.841 222.126L201.573 220.144ZM187.008 220.59C185.686 220.23 184.87 219.89 184.294 219.528C183.739 219.179 183.36 218.78 182.957 218.215L181.329 219.376C181.836 220.087 182.393 220.695 183.229 221.221C184.044 221.733 185.074 222.136 186.483 222.519L187.008 220.59ZM182.983 218.252C182.924 218.162 182.868 218.063 182.811 217.953L181.034 218.87C181.113 219.024 181.202 219.181 181.303 219.338L182.983 218.252ZM182.866 218.079C181.858 215.221 182.363 211.949 183.772 208.62C185.176 205.301 187.429 202.05 189.716 199.328L188.185 198.041C185.825 200.85 183.44 204.273 181.93 207.84C180.424 211.397 179.738 215.223 180.98 218.744L182.866 218.079ZM189.71 199.335C194.526 193.71 200.19 188.86 205.895 184.002L204.599 182.479C198.91 187.323 193.125 192.27 188.191 198.034L189.71 199.335ZM205.895 184.002C213.718 177.349 221.745 171.49 231.254 165.224L230.154 163.554C220.596 169.853 212.499 175.759 204.599 182.479L205.895 184.002ZM231.256 165.223C234.006 163.404 236.739 161.627 239.602 160.083L238.652 158.322C235.702 159.913 232.903 161.736 230.152 163.555L231.256 165.223ZM239.616 160.075C240.203 159.746 240.815 159.446 241.452 159.141C242.081 158.839 242.743 158.527 243.388 158.188L242.459 156.417C241.854 156.735 241.234 157.027 240.587 157.338C239.947 157.645 239.286 157.967 238.638 158.33L239.616 160.075ZM243.418 158.172C245.982 156.713 246.89 155.805 248.927 154.074L247.632 152.55C245.556 154.314 244.797 155.086 242.429 156.434L243.418 158.172ZM248.513 152.34C246.137 151.769 243.666 151.936 241.385 152.591L241.937 154.513C243.945 153.936 246.061 153.807 248.046 154.284L248.513 152.34ZM241.352 152.601C239.743 153.123 238.25 153.914 236.859 154.636L237.779 156.411C239.21 155.669 240.548 154.964 241.969 154.503L241.352 152.601ZM236.847 154.642C233.985 156.172 231.263 157.922 228.596 159.688L229.701 161.356C232.358 159.595 235.016 157.889 237.791 156.405L236.847 154.642ZM228.608 159.681C219.721 165.39 211.204 171.647 203.027 178.314L204.291 179.864C212.416 173.239 220.872 167.027 229.689 161.363L228.608 159.681ZM203.008 178.33C197.724 182.865 190.401 188.75 184.743 195.466C179.096 202.167 174.913 209.919 176.249 218.203L178.223 217.884C177.03 210.484 180.736 203.325 186.272 196.754C191.797 190.197 198.951 184.448 204.311 179.848L203.008 178.33ZM176.25 218.209C176.802 221.498 178.845 223.765 181.387 225.212C183.908 226.647 186.959 227.306 189.713 227.424L189.799 225.426C187.266 225.317 184.548 224.71 182.376 223.474C180.225 222.249 178.652 220.439 178.222 217.878L176.25 218.209ZM189.716 227.425C195.868 227.673 201.998 226.461 207.876 225.681L207.613 223.699C201.561 224.502 195.72 225.666 189.797 225.426L189.716 227.425ZM207.898 225.678C213.843 224.757 219.7 223.752 225.628 222.868L225.333 220.89C219.419 221.772 213.473 222.791 207.592 223.702L207.898 225.678ZM225.638 222.866C231.249 221.971 238.232 221.344 242.871 222.375L243.305 220.422C238.258 219.302 230.937 219.995 225.323 220.891L225.638 222.866ZM242.892 222.379C246.891 223.178 249.668 224.669 251.499 226.685C253.327 228.695 254.303 231.327 254.518 234.581L256.514 234.449C256.276 230.861 255.181 227.762 252.98 225.34C250.782 222.921 247.572 221.275 243.284 220.418L242.892 222.379ZM254.518 234.587C254.793 238.393 254.884 242.175 254.369 245.883L256.35 246.158C256.893 242.244 256.792 238.3 256.513 234.443L254.518 234.587ZM254.37 245.876C253.225 253.707 250.734 261.266 248.359 268.927L250.269 269.519C252.625 261.919 255.176 254.186 256.349 246.165L254.37 245.876ZM248.361 268.921C244.941 279.716 241.139 291.191 242.269 302.954L244.26 302.763C243.176 291.483 246.816 280.42 250.267 269.525L248.361 268.921ZM242.271 302.971C242.76 307.271 243.96 311.454 245.613 315.412L247.458 314.642C245.864 310.826 244.723 306.827 244.258 302.745L242.271 302.971ZM245.609 315.403C246.769 318.259 248.066 321.173 249.897 323.797L251.537 322.653C249.84 320.222 248.612 317.482 247.462 314.651L245.609 315.403ZM249.897 323.797C258.436 336.032 271.279 344.196 283.384 352.041L284.471 350.363C272.29 342.468 259.811 334.508 251.537 322.653L249.897 323.797ZM283.406 352.055C300.195 362.322 317.691 371.452 334.741 381.124L335.728 379.385C318.59 369.662 301.207 360.597 284.449 350.349L283.406 352.055ZM334.746 381.127C345.673 387.24 356.085 394.226 366.199 401.632L367.38 400.019C357.224 392.581 346.742 385.546 335.723 379.382L334.746 381.127ZM366.204 401.636C376.72 409.226 388.908 419.03 399.124 429.153L400.531 427.732C390.221 417.516 377.947 407.645 367.375 400.015L366.204 401.636ZM399.125 429.154C403.649 433.619 407.994 438.256 412.093 443.105L413.621 441.813C409.477 436.913 405.091 432.232 400.53 427.731L399.125 429.154ZM412.107 443.12C413.504 444.705 414.656 446.2 415.826 447.699C416.992 449.194 418.174 450.689 419.601 452.225L421.066 450.864C419.703 449.397 418.567 447.961 417.403 446.469C416.243 444.982 415.052 443.436 413.607 441.797L412.107 443.12ZM419.617 452.243C420.487 453.134 421.406 453.973 422.353 454.767L423.638 453.233C422.733 452.476 421.865 451.683 421.05 450.847L419.617 452.243ZM423.937 453.663C423.797 453.272 423.649 452.862 423.477 452.451L421.632 453.222C421.781 453.579 421.913 453.944 422.054 454.337L423.937 453.663ZM422.555 453.836H422.559V451.836H422.555V453.836Z" fill="black" mask="url(#path-1-outside-1_2_12203)"/>
<g clip-path="url(#clip0_2_12203)">
<path d="M425.406 454.296L425.719 454.364L425.811 453.224C425.982 451.107 426.1 448.76 426.202 446.606C426.216 446.303 426.23 446.003 426.244 445.709C426.328 443.903 426.403 442.29 426.492 441.107L426.493 441.107L426.493 441.095C426.651 438.646 426.783 436.194 426.912 433.749L426.914 433.718L426.914 433.687C426.911 433.405 426.935 433.143 426.964 432.831C426.977 432.685 426.991 432.528 427.005 432.353C427.042 431.854 427.061 431.257 426.912 430.64L426.899 430.585L426.879 430.532C426.592 429.744 426.088 429.164 425.441 428.84C424.805 428.523 424.11 428.491 423.495 428.654C422.312 428.967 421.218 430.092 421.401 431.64C421.37 432.24 421.336 432.857 421.302 433.478C421.261 434.224 421.219 434.974 421.184 435.702C421.138 436.522 421.088 437.385 421.036 438.282C420.825 441.958 420.58 446.218 420.37 450.51C419.356 450.504 418.33 450.436 417.271 450.365L417.271 450.365L417.261 450.365C414.922 450.231 411.417 449.784 407.816 449.326C405.717 449.058 403.586 448.787 401.632 448.57L401.628 448.57C399.454 448.339 398.765 448.301 397.648 448.244L397.6 448.241L397.551 448.244C397.407 448.25 397.259 448.248 397.07 448.244L397.043 448.244C396.868 448.241 396.657 448.238 396.44 448.249C395.991 448.24 395.515 448.349 395.095 448.62C393.969 449.326 393.687 450.887 394.404 451.961L394.416 451.979L394.429 451.996C394.739 452.421 395.218 452.857 395.905 453.001C395.917 453.004 395.929 453.007 395.943 453.009C395.987 453.022 396.029 453.033 396.067 453.043L396.095 453.05C396.167 453.069 396.225 453.085 396.282 453.102C397.181 453.366 398.087 453.539 398.95 453.696L398.95 453.696L398.961 453.698C402.504 454.302 406.064 454.769 409.601 455.232L409.607 455.233C409.608 455.233 409.608 455.233 409.609 455.233C412.594 455.636 415.59 455.919 418.59 456.098L418.617 456.099L418.644 456.099C418.953 456.101 419.269 456.117 419.619 456.134C419.848 456.145 420.093 456.157 420.36 456.166C420.995 456.189 421.7 456.192 422.381 456.098C423.059 456.005 423.779 455.807 424.402 455.379C424.807 455.101 425.148 454.741 425.406 454.296Z" fill="black" stroke="black" stroke-width="2"/>
</g>
<g clip-path="url(#clip1_2_12203)">
<path d="M237.791 178.178L238.236 178.406C238.236 178.406 238.236 178.406 238.236 178.407C238.206 178.466 238.177 178.526 238.145 178.592L238.132 178.618C238.112 178.659 238.091 178.703 238.068 178.748C238.063 178.764 238.057 178.777 238.052 178.787C237.845 179.288 237.44 179.602 237.032 179.795L237.023 179.799L237.013 179.804C236.07 180.202 234.894 179.738 234.521 178.772C234.372 178.405 234.358 178.012 234.438 177.652C234.465 177.451 234.505 177.254 234.543 177.075L234.55 177.043C234.587 176.863 234.621 176.703 234.644 176.545L234.647 176.521L234.653 176.497C234.918 175.419 235.082 174.759 235.716 172.676L235.716 172.674C236.29 170.818 236.955 168.787 237.611 166.781C238.745 163.316 239.854 159.925 240.43 157.638L240.431 157.633L240.431 157.633L240.434 157.624C240.742 156.445 241.046 155.286 241.252 154.116C236.924 153.067 232.615 151.981 228.914 151.047C228.041 150.827 227.201 150.616 226.404 150.415C225.691 150.243 224.969 150.062 224.248 149.882C223.636 149.729 223.025 149.576 222.422 149.429C222.422 149.429 222.422 149.429 222.422 149.429L222.42 149.429C222.415 149.428 222.407 149.427 222.397 149.426C221.123 149.346 220.368 148.3 220.297 147.268C220.26 146.741 220.395 146.188 220.744 145.732C221.098 145.27 221.643 144.943 222.359 144.827L222.387 144.822L222.416 144.821C222.969 144.795 223.491 144.909 223.962 145.036C224.111 145.077 224.253 145.118 224.389 145.157C224.704 145.247 224.992 145.33 225.295 145.386L225.31 145.389L225.325 145.392C227.702 145.98 230.083 146.571 232.456 147.187L232.461 147.188L232.461 147.188C233.614 147.501 235.193 147.881 236.949 148.303C237.236 148.372 237.527 148.442 237.821 148.513C239.918 149.019 242.193 149.575 244.231 150.139L244.782 150.292L244.728 150.417L242.811 165.791L242.337 165.632M237.791 178.178C238.194 177.396 238.519 176.582 238.835 175.765C240.089 172.418 241.213 169.025 242.337 165.632L242.337 165.632M237.791 178.178C237.758 178.243 237.726 178.309 237.695 178.375C237.673 178.419 237.652 178.462 237.631 178.506L237.791 178.178ZM242.337 165.632L242.811 165.789L242.811 165.79L244.096 150.626C246.152 151.646 245.568 154.053 245.092 156.017C245.004 156.378 244.92 156.724 244.857 157.044C244.122 159.935 243.286 162.8 242.337 165.632Z" fill="black" stroke="black"/>
</g>
<defs>
<clipPath id="clip0_2_12203">
<rect width="21" height="37" fill="white" transform="translate(424.709 428.873) rotate(56.7446)"/>
</clipPath>
<clipPath id="clip1_2_12203">
<rect width="21" height="37" fill="white" transform="translate(220.242 146.152) rotate(-22.3962)"/>
</clipPath>
</defs>
</svg>
