<svg width="600" height="600" viewBox="0 0 600 600" fill="none" xmlns="http://www.w3.org/2000/svg">
<path d="M422.559 452.836C421.584 450.261 419.977 448.017 418.261 445.89C416.537 443.659 414.749 441.475 412.925 439.32C407.044 432.397 400.71 425.875 394.167 419.581C379.009 405.204 364.528 393.687 347.358 382.41C335.231 374.696 322.41 368.138 309.894 361.083C299.041 355.053 288.237 348.91 277.918 342C271.347 337.329 266.496 334.082 260.459 327.984C256.089 323.389 253.664 320.49 251.046 314.339C250.681 313.439 249.41 310.396 248.757 307.805C247.959 304.462 247.658 303.098 247.534 300.615C247.374 292.153 248.905 285.866 251.479 277.257C253.988 269.031 256.819 260.885 258.719 252.487C259.982 246.952 260.499 241.266 260.058 235.599C259.829 231.068 258.803 226.501 255.604 223.094C252.441 219.571 247.815 217.696 243.216 216.92C235.343 215.568 227.405 217.16 219.611 218.319C214.303 219.179 204.834 220.707 201.707 221.135C196.511 221.839 190.281 222.558 186.745 221.555C184.015 220.811 183.053 220.071 182.143 218.795C182.063 218.671 181.991 218.543 181.923 218.411C179.674 212.033 184.304 204.215 188.95 198.684C193.825 192.99 199.55 188.091 205.247 183.24C213.109 176.554 221.171 170.671 230.704 164.389C233.454 162.57 236.22 160.77 239.127 159.202C240.362 158.511 241.673 157.959 242.924 157.303C245.389 155.899 246.223 155.059 248.28 153.312C246.099 152.788 243.806 152.936 241.661 153.552C240.145 154.044 238.73 154.791 237.319 155.523C234.501 157.031 231.811 158.758 229.149 160.522C220.297 166.209 211.81 172.443 203.659 179.089C193.016 188.223 174.706 202.359 177.236 218.044C178.218 223.894 184.468 226.197 189.756 226.425C195.794 226.669 201.779 225.482 207.745 224.69C213.658 223.774 219.559 222.762 225.48 221.879C231.093 220.983 238.245 220.323 243.088 221.399C251.375 223.054 255.063 227.673 255.516 234.515C255.792 238.346 255.889 242.209 255.359 246.02C254.201 253.946 251.679 261.593 249.314 269.223C245.878 280.068 242.158 291.337 243.264 302.858C243.741 307.049 244.912 311.14 246.536 315.027C247.69 317.87 248.953 320.698 250.717 323.225C259.124 335.27 271.784 343.332 283.928 351.202C300.701 361.459 318.14 370.557 335.235 380.255C346.207 386.393 356.655 393.403 366.789 400.825C377.333 408.435 389.565 418.273 399.828 428.442C404.37 432.925 408.736 437.584 412.857 442.459C415.699 445.682 417.543 448.541 420.334 451.545C421.176 452.408 422.07 453.224 422.996 454C422.855 453.608 422.715 453.22 422.555 452.836H422.559Z" fill="black"/>
<g clip-path="url(#clip0_2_12203)">
<path d="M423.815 452.143C424.154 447.946 424.284 442.819 424.495 440.031C424.653 437.588 424.785 435.141 424.914 432.696C424.906 431.757 425.163 430.796 424.94 429.875C424.099 427.57 421.125 428.604 421.399 430.566C421.399 430.59 421.402 430.612 421.402 430.636C421.333 432.01 421.249 433.382 421.183 434.754C420.931 439.179 420.593 444.843 420.323 450.494C420.259 450.497 420.194 450.499 420.13 450.502C418.822 450.538 417.511 450.45 416.204 450.363C412.471 450.15 405.749 449.143 400.522 448.564C398.367 448.335 397.697 448.299 396.597 448.242C396.22 448.26 395.831 448.225 395.454 448.25C395.165 448.238 394.875 448.305 394.632 448.464C394.001 448.854 393.816 449.777 394.236 450.406C394.461 450.714 394.757 450.957 395.138 451.028C395.131 451.029 395.114 451.02 395.087 451.01C395.243 451.058 395.404 451.095 395.563 451.142C396.407 451.39 397.267 451.556 398.129 451.712C401.653 452.313 405.197 452.778 408.741 453.242C411.701 453.642 414.672 453.922 417.65 454.099C419.748 454.112 423.083 454.761 423.81 452.142L423.815 452.143Z" fill="black"/>
</g>
<g clip-path="url(#clip1_2_12203)">
<path d="M248.097 150.621C244.039 149.497 239.029 148.404 236.33 147.671C233.96 147.056 231.582 146.465 229.205 145.878C228.282 145.709 227.386 145.275 226.439 145.32C224.018 145.713 224.473 148.828 226.451 148.928C226.475 148.933 226.497 148.934 226.52 148.938C227.857 149.265 229.189 149.607 230.524 149.93C234.822 151.01 240.321 152.41 245.82 153.739C245.81 153.803 245.801 153.867 245.791 153.931C245.58 155.222 245.247 156.493 244.915 157.76C244.002 161.386 241.747 167.798 240.194 172.822C239.563 174.895 239.401 175.547 239.139 176.616C239.085 176.99 238.978 177.366 238.931 177.74C238.864 178.022 238.876 178.32 238.986 178.587C239.25 179.281 240.122 179.637 240.818 179.343C241.164 179.18 241.458 178.935 241.599 178.574C241.599 178.581 241.587 178.597 241.572 178.62C241.649 178.476 241.716 178.325 241.791 178.178C242.194 177.396 242.519 176.582 242.835 175.765C244.089 172.418 245.213 169.025 246.337 165.632C247.286 162.8 248.122 159.935 248.857 157.044C249.264 154.985 250.53 151.833 248.095 150.625L248.097 150.621Z" fill="black"/>
</g>
<defs>
<clipPath id="clip0_2_12203">
<rect width="21" height="37" fill="white" transform="translate(423.709 427.873) rotate(56.7446)"/>
</clipPath>
<clipPath id="clip1_2_12203">
<rect width="21" height="37" fill="white" transform="translate(224.242 146.152) rotate(-22.3962)"/>
</clipPath>
</defs>
</svg>
