<svg width="69" height="69" viewBox="0 0 69 69" fill="none" xmlns="http://www.w3.org/2000/svg">
<path d="M35.1306 38.1654V48.0428H30.624C30.6261 47.5783 30.6287 46.9712 30.6315 46.2607C30.6382 44.5773 30.6462 42.3136 30.6515 39.9926C30.6599 36.322 30.662 32.4694 30.6403 30.5676H35.1306V32.3279V35.6977L36.9688 32.8734C37.3714 32.2547 37.8896 31.5765 38.6599 31.0471C39.4158 30.5277 40.468 30.115 41.9986 30.115C43.9207 30.115 45.5089 30.7335 46.6235 31.9348C47.7447 33.1432 48.5001 35.064 48.5001 37.8826V48.0428H43.989V38.6236C43.989 37.222 43.741 35.8855 43.0468 34.8729C42.3096 33.7974 41.1587 33.2172 39.6879 33.2172C37.3502 33.2172 35.9895 34.8081 35.4206 36.2105C35.1709 36.8233 35.1306 37.5707 35.1306 38.1654ZM52.8752 11.9375H16.1248C13.8434 11.9375 11.9375 13.7419 11.9375 16.0259V52.9741C11.9375 55.2649 13.8446 57.0625 16.1248 57.0625H52.8752C55.1566 57.0625 57.0625 55.2581 57.0625 52.9741V16.0259C57.0625 13.7351 55.1554 11.9375 52.8752 11.9375ZM20.4999 48.0428V30.5676H25.011V48.0428H20.4999ZM22.7555 25.909H22.7156C21.0535 25.909 20.1185 24.835 20.1185 23.5434C20.1185 22.2755 21.0742 21.1778 22.801 21.1778C23.6899 21.1778 24.3298 21.4639 24.7468 21.8646C25.163 22.2647 25.4238 22.8425 25.4436 23.5552C25.4406 24.2244 25.19 24.7956 24.7633 25.203C24.3347 25.6124 23.6715 25.909 22.7611 25.909H22.7555Z" stroke="black" stroke-width="2"/>
</svg>
