<svg width="69" height="69" viewBox="0 0 69 69" fill="none" xmlns="http://www.w3.org/2000/svg">
<path d="M35.6306 38.1654V48.5428H30.1218L30.123 48.2831C30.1251 47.7969 30.1281 47.1003 30.1315 46.2587C30.1382 44.5755 30.1462 42.3121 30.1515 39.9915C30.1608 35.9383 30.1622 31.6873 30.1332 30.0676H35.6306V32.3279V34.0128L36.5497 32.6006C36.9673 31.959 37.5281 31.2183 38.3767 30.6351C39.2182 30.0568 40.3696 29.615 41.9986 29.615C44.0311 29.615 45.7629 30.2721 46.99 31.5947C48.2205 32.9208 49.0001 34.9772 49.0001 37.8826V48.5428H43.489V38.6236C43.489 37.268 43.2469 36.049 42.6344 35.1556C42.0004 34.2307 41.0123 33.7172 39.6879 33.7172C37.6198 33.7172 36.4044 35.1151 35.8837 36.3989C35.6735 36.9146 35.6306 37.5768 35.6306 38.1654ZM52.8752 12.4375H16.1248C14.1047 12.4375 12.4375 14.0326 12.4375 16.0259V52.9741C12.4375 54.9736 14.1053 56.5625 16.1248 56.5625H52.8752C54.8953 56.5625 56.5625 54.9674 56.5625 52.9741V16.0259C56.5625 14.0264 54.8947 12.4375 52.8752 12.4375ZM19.9999 48.5428V30.0676H25.511V48.5428H19.9999ZM22.7555 26.409H22.7156C20.7918 26.409 19.6185 25.1254 19.6185 23.5434C19.6185 21.9733 20.8249 20.6778 22.801 20.6778C23.8018 20.6778 24.5714 21.0025 25.0933 21.5041C25.6147 22.0053 25.9223 22.7148 25.9436 23.5493C25.9421 24.3507 25.6403 25.0569 25.1086 25.5646C24.5759 26.0733 23.7841 26.409 22.7611 26.409H22.7555Z" stroke="black"/>
</svg>
