<?xml version="1.0" encoding="utf-8"?>
<!-- Generator: Adobe Illustrator 28.0.0, SVG Export Plug-In . SVG Version: 6.00 Build 0)  -->
<svg version="1.1" id="Layer_1" xmlns="http://www.w3.org/2000/svg" xmlns:xlink="http://www.w3.org/1999/xlink" x="0px" y="0px"
	 viewBox="0 0 288 560" style="enable-background:new 0 0 288 560;" xml:space="preserve">
<style type="text/css">
	.st0{fill:none;stroke:#000000;stroke-width:5;stroke-miterlimit:10;}
</style>
<g>
	<g>
		<path d="M158.97,308.62c0,0-1.42,0.93-1.42,0.93s-0.03,0.02-0.03,0.02c-5.21,2.44-10.99,3.59-16.77,3.09
			c-11.81-0.76-22.86-7.57-30.48-16.38c-15.73-17.95-21.09-41.31-17.75-64.6c0.48-5.29,1.22-10.66-0.52-15.7
			c0,0-1.36-3.98-1.36-3.98s4.54,0.65,4.54,0.65c17.25,1.76,31.62,8.59,44.23,20.44c4.02,3.75,7.68,7.83,11,12.2
			c4.91,6.5,9.56,13.5,12.49,21.21c3.91,10.26,5.06,21.98,1.71,32.49c-0.79,2.59-1.91,5.1-3.41,7.37c0,0-0.03,0.03-0.03,0.03
			S158.97,308.62,158.97,308.62L158.97,308.62z M158.4,307.92c0,0,2.06-2.22,2.06-2.22c1.08-1.8,2.19-4.7,2.6-7.11
			c1.92-10.1-2.24-20.21-7.23-28.77c-5.06-8.68-11.22-16.82-17.88-24.41c-12.43-14.56-25.41-22.52-43.94-27.5
			c0,0,3.18-3.33,3.18-3.33c1.17,5.89-0.38,11.89-1.46,17.57c-3.55,16.23-0.61,29.05,8.62,42.69c6.7,9.9,13.99,19.67,22.99,27.59
			c5.96,5.1,13.77,9.14,21.86,8.42c2.71-0.22,5.43-0.98,7.89-2.1c0,0-0.05,0.03-0.05,0.03L158.4,307.92L158.4,307.92z"/>
	</g>
	<g>
		<path d="M156.73,306.55c0,0-1.16,1.26-1.16,1.26s-0.02,0.02-0.02,0.02s-0.02,0.02-0.02,0.02c-3.85,3.33-8.3,6-13.3,7.73
			c-16.1,5.44-32.55-2.34-43.13-14.62c-10.78-11.88-14.93-27.72-15.25-43.23c-0.39-4.68-0.45-9.56-2.85-13.62
			c0,0-1.86-3.11-1.86-3.11c4.8-0.96,9.77-2.15,14.67-2.62c11.18-1.25,22.67,1.3,32.76,6.15c7.73,3.85,14.76,9.02,20.87,15.1
			c8.07,7.73,13.66,18.76,13.63,30.03c0.01,4.93-0.74,9.75-2.63,14.2c0,0-0.02,0.03-0.02,0.03L156.73,306.55L156.73,306.55z
			 M156.01,306.01c0,0,1.57-2.64,1.57-2.64c0.65-1.76,1.21-4.45,1.27-6.63c0.5-11.51-7.19-20.92-15.1-28.3
			c-4.96-4.4-10.24-8.55-15.85-12.09c-14.33-9.48-27.1-11.74-44.11-10.72c0,0,2.15-3.94,2.15-3.94c0.55,1.41,0.9,2.83,1.12,4.22
			c0.99,8.85-1.12,17.85,1.09,26.48c2.05,9.64,8.62,17.32,15.99,23.46c11.02,8.89,22.81,18.19,37.49,17.13
			C146.9,312.35,152.42,309.89,156.01,306.01L156.01,306.01z"/>
	</g>
	<path class="st0" d="M152.9,317.56"/>
	<path class="st0" d="M151.37,312.76"/>
	<path class="st0" d="M188.34,262.14c-2.72-6.48-11.59-7.02-16.44-4c-3.19,1.98-3.78,7.91-5.15,9.04"/>
	<path class="st0" d="M147.39,319.83"/>
	<path class="st0" d="M145.35,315.23"/>
	<g>
		<path d="M155.98,301.63l-0.61,1.32c0,0.01-0.02,0.03-0.02,0.04c-2.22,3.67-5.06,6.99-8.59,9.76
			c-15.56,11.96-36.85,4.55-48.98-8.76c-6.04-6.46-9.92-14.43-12.99-22.52c-1.48-3.52-3.05-7.55-5.86-9.94c0,0-2.69-2.33-2.69-2.33
			c2.83-1.6,5.87-3.56,8.78-5.04c9.33-5.05,20.43-6.54,30.9-5.11c8.31,1.21,16.29,4.15,23.57,8.29c7.26,4.36,13.35,11.4,15.76,19.54
			c1.22,4.01,1.81,8.08,1.43,12.14c0,0-0.01,0.03-0.01,0.03S155.98,301.63,155.98,301.63L155.98,301.63z M155.13,301.33l0.57-2.51
			c0.15-3.4-1.09-7.66-3.09-10.74c-4.55-7.11-12.29-10.84-19.75-14.02c-5.94-2.45-12.18-4.36-18.46-5.66
			c-11.16-2.32-21.34-0.38-32.34,3.72c0,0,0.83-4.41,0.83-4.41c2.98,3.9,3.81,8.23,5.03,12.69c1.97,8.01,5.91,15.6,12.81,20.25
			c3.27,2.25,7.01,3.98,10.66,5.45C125.67,311.77,146.36,318.06,155.13,301.33L155.13,301.33z"/>
	</g>
	<g>
		<path d="M209.43,266.62c-1.34-1.11-3.38-1.32-5.1-1.57c-4.58-0.45-9.47-0.44-14,0.24c-1.85,0.42-2.08,2.59-2.4,4.79
			c-0.54,5.86,0.35,11.68-0.63,17.68c0,0,0.07-0.79,0.07-0.79c0.29,0.67,0.07,1.38,0.02,2.07c-1.59,7.81-7.72,13.71-13.62,18.47
			c-6.26,4.82-13.63,8.4-21.45,9.84c-6.05,0.74-12.37-0.61-17.65-3.49c-15.06-8.4-20.72-25.99-22.98-41.92
			c-1.53-10.47-1.28-21.42,2.31-31.48c2.54-7.5,7.12-14.01,10.54-20.97c1.62-3.09,2.09-6.59,2.3-9.99c4.2,2.35,8.48,4.56,12.56,7.31
			c6.31,4.2,12.01,9.54,16.46,15.72c6.75,9.17,11.06,20.01,14.03,30.86c4.22,14.86,3.8,31.09-1.6,45.63
			c-5.36,14.63-16.08,27.28-29.76,34.79c-8.35,4.9-17.95,7.21-27.33,9.12c0,0,1.53-5.56,1.53-5.56l0.27-1c0,0-0.02,1.55-0.02,1.55
			c-0.47-2.62-0.41-5.32,0.14-7.84c3.65-15.74,22.09-26.41,37.33-26.91c0,0,0.1,0.9,0.1,0.9c-4.27,0.86-8.32,2.46-12.07,4.5
			c-9.7,5.39-21.23,15.92-18.6,27.89c0,0,0.16,0.64,0.16,0.64c-0.1,0.48-0.29,1.44-0.38,1.92c0,0-4.28-4.29-4.28-4.29
			c31.62-8.29,50.65-36.8,47.85-69.07c-0.11-1.26-0.44-3.81-0.65-5.06c-2.24-11.95-6.15-23.75-12.59-34.05
			c-5.54-9.05-13.48-15.99-22.45-21.65c0,0,3.3-1.59,3.3-1.59c-0.5,2.93-1.65,5.56-2.96,7.92c-3.89,6.73-8.72,12.9-11.28,20.2
			c-1.77,4.73-2.75,9.74-2.89,14.8c-0.34,17.65,7.7,42.64,24.46,50.78c4.04,1.99,8.51,2.74,12.92,2.37l-0.45,0.07
			c3.31-0.64,6.58-1.58,9.66-2.99c7.26-3.26,18.3-10.94,20.4-18.9c1.8-6.82,0.5-14.59,2.99-21.5c1.57-4.29,4.88-5.61,9.23-5.05
			c4.02,0.28,7.95,0.85,11.82,2.02c1.96,0.68,4.05,1.29,5.38,3.07C210.15,266.07,209.43,266.62,209.43,266.62L209.43,266.62z"/>
	</g>
</g>
</svg>
