<svg width="1392" height="788" viewBox="0 0 1392 788" fill="none" xmlns="http://www.w3.org/2000/svg">
<g filter="url(#filter0_f_77_590)">
<path d="M667.228 610.913C763.452 563.951 817.371 311.05 764.088 226.241C710.805 141.433 581.126 19.9218 484.902 66.8832C388.678 113.845 88.8589 444.969 142.142 529.778C195.424 614.586 571.004 657.874 667.228 610.913Z" fill="#FBDEB7" fill-opacity="0.78"/>
</g>
<g filter="url(#filter1_f_77_590)">
<path d="M674.084 610.913C770.308 563.951 824.226 311.05 770.944 226.241C717.661 141.433 587.982 19.9218 491.758 66.8832C395.534 113.845 95.7144 444.969 148.997 529.778C202.28 614.586 577.86 657.874 674.084 610.913Z" fill="#FBDEB7" fill-opacity="0.78"/>
</g>
<defs>
<filter id="filter0_f_77_590" x="-464.152" y="-543.576" width="1849.23" height="1773.78" filterUnits="userSpaceOnUse" color-interpolation-filters="sRGB">
<feFlood flood-opacity="0" result="BackgroundImageFix"/>
<feBlend mode="normal" in="SourceGraphic" in2="BackgroundImageFix" result="shape"/>
<feGaussianBlur stdDeviation="300" result="effect1_foregroundBlur_77_590"/>
</filter>
<filter id="filter1_f_77_590" x="-457.296" y="-543.576" width="1849.23" height="1773.78" filterUnits="userSpaceOnUse" color-interpolation-filters="sRGB">
<feFlood flood-opacity="0" result="BackgroundImageFix"/>
<feBlend mode="normal" in="SourceGraphic" in2="BackgroundImageFix" result="shape"/>
<feGaussianBlur stdDeviation="300" result="effect1_foregroundBlur_77_590"/>
</filter>
</defs>
</svg>
