<svg width="808" height="808" viewBox="0 0 808 808" fill="none" xmlns="http://www.w3.org/2000/svg">
<path d="M478.078 514.805L478.078 514.771L478.912 515.546C479.243 515.854 479.574 516.167 479.898 516.487L481.091 517.663L479.449 517.333C478.369 517.117 477.292 516.832 476.245 516.464M478.078 514.805L476.245 516.464M478.078 514.805C475.998 513.021 473.651 511.628 471.347 510.26L471.323 510.246C470.033 509.48 468.756 508.722 467.528 507.901L467.521 507.897C461.157 503.792 455.599 500.048 450.753 496.639C432.626 483.788 414.778 470.544 396.93 457.3C395.19 456.009 393.45 454.718 391.71 453.427L391.708 453.426C379.076 444.124 366.998 434.09 355.469 423.451C354.938 422.955 354.412 422.464 353.891 421.978C346.549 415.13 340.112 409.123 334.753 401.473C331.248 396.363 329.246 393.217 327.973 387.252C327.465 384.347 327.636 381.913 328.357 379.798C329.079 377.679 330.363 375.847 332.132 374.163C335.691 370.776 341.142 368.048 347.736 364.845L347.736 364.845L347.746 364.84C356.706 360.241 365.744 355.501 373.856 349.409L373.867 349.4L373.878 349.391C374.814 348.602 375.75 347.842 376.681 347.086L376.7 347.07C380.878 343.675 384.961 340.357 388.335 335.005L388.336 335.005L388.343 334.993C390.699 331.016 391.991 326.312 391.571 321.647L391.571 321.647L391.569 321.635C391.177 318.249 389.842 315.066 388.241 312.15L388.241 312.15L388.236 312.141C383.409 303.762 375.331 297.973 367.523 292.805C364.099 290.457 360.482 288.42 356.858 286.453L356.858 286.453C352.246 283.955 347.528 281.597 342.566 279.789C342.228 279.663 341.89 279.535 341.55 279.407L341.548 279.406L341.372 279.874L341.548 279.406C341.222 279.283 340.868 279.048 340.48 278.723C340.123 278.426 339.764 278.078 339.388 277.713C339.356 277.681 339.323 277.65 339.291 277.618C338.886 277.226 338.46 276.818 338.027 276.478C337.596 276.14 337.125 275.843 336.622 275.698L336.605 275.693L336.588 275.689C335.729 275.506 335.216 275.051 334.639 274.54C334.574 274.483 334.508 274.425 334.441 274.366C334.118 274.084 333.753 273.787 333.3 273.587C332.836 273.381 332.305 273.286 331.657 273.36L330.55 273.488L331.381 274.23C332.669 275.381 333.658 276.944 334.651 278.515C334.83 278.797 335.008 279.079 335.189 279.359C336.337 281.143 337.594 282.893 339.412 283.539L339.58 283.068L339.412 283.539C340.497 283.925 341.55 284.299 342.569 284.722L342.569 284.722L342.578 284.726C347.005 286.459 351.215 288.686 355.435 290.942C360.415 293.641 365.621 296.946 369.139 299.469L369.139 299.469L369.144 299.472C374.046 302.903 379.355 307.484 382.025 311.14C384.167 314.193 384.979 315.586 386.027 318.453C386.141 318.817 386.239 319.123 386.324 319.386C386.56 320.121 386.681 320.501 386.766 320.922C386.85 321.341 386.899 321.809 386.971 322.708C387.158 328.222 384.84 333.035 380.271 337.694C376.558 341.236 373.05 344.29 368.171 347.748C360.278 353.087 351.828 357.572 343.289 361.85M478.078 514.805L343.289 361.85M476.245 516.464C473.617 515.545 471.258 514.077 468.959 512.647L468.936 512.633C468.061 512.088 467.195 511.549 466.317 511.041L466.307 511.035L466.307 511.035C461.441 508.07 456.637 505.004 451.862 501.897M476.245 516.464L451.862 501.897M451.862 501.897C433.908 490.252 417.919 479.123 400.431 466.216L400.43 466.215C399.545 465.559 398.66 464.904 397.775 464.248L397.74 464.223L397.733 464.217C387.569 456.689 377.383 449.144 367.709 440.955L368.032 440.574L367.709 440.955C361.231 435.471 354.881 429.829 348.714 423.99M451.862 501.897L349.056 423.625M348.714 423.99C348.714 423.99 348.713 423.989 348.713 423.988L349.056 423.625M348.714 423.99C348.715 423.99 348.715 423.991 348.716 423.991L349.056 423.625M348.714 423.99C343.576 419.205 336.913 412.794 331.639 405.695C326.374 398.61 322.427 390.757 322.848 383.097M349.056 423.625C338.781 414.058 322.524 398.084 323.348 383.123M322.848 383.097C322.848 383.097 322.848 383.098 322.848 383.098L323.348 383.123M322.848 383.097C323.134 377.287 326.04 373.044 329.967 369.727C333.878 366.423 338.838 364.008 343.289 361.85M322.848 383.097C322.848 383.096 322.848 383.096 322.848 383.095L323.348 383.123M323.348 383.123L343.289 361.85M359.331 412.898C358.311 412.04 356.142 409.948 354.048 407.929L354.047 407.928C353.379 407.285 352.72 406.649 352.107 406.062C351.578 405.539 351.043 405.021 350.508 404.503C348.852 402.898 347.196 401.293 345.695 399.538L359.331 412.898ZM359.331 412.898C367.947 420.49 376.996 427.606 386.247 434.405L359.331 412.898ZM418.362 460.817L418.574 461.032L418.1 459.221C417.453 456.747 415.835 454.742 413.963 453.177C412.385 451.75 410.777 450.336 409.067 449.037L409.063 449.034C405.024 446.018 400.778 443.308 396.551 440.61L396.543 440.605C393.165 438.449 389.799 436.3 386.539 433.999C377.298 427.207 368.263 420.102 359.661 412.523L359.661 412.523L359.653 412.516C358.65 411.671 356.496 409.595 354.394 407.568C353.728 406.926 353.068 406.29 352.456 405.704C351.925 405.18 351.39 404.661 350.856 404.144C349.197 402.537 347.558 400.948 346.075 399.214C344.909 397.833 343.853 396.362 342.891 394.828L342.887 394.821L342.882 394.814C342.882 394.814 342.882 394.813 342.88 394.811L342.88 394.81C342.876 394.804 342.872 394.797 342.862 394.779C342.854 394.766 342.844 394.748 342.832 394.728C342.134 393.472 341.794 392.825 341.565 392.212C341.336 391.601 341.213 391.013 340.972 389.848L340.913 389.562C340.838 389.049 340.776 388.679 340.728 388.396C340.65 387.928 340.618 387.731 340.62 387.501C340.622 387.262 340.659 386.98 340.755 386.358C340.763 386.311 340.77 386.27 340.775 386.234C340.784 386.178 340.79 386.135 340.795 386.103C340.798 386.086 340.8 386.073 340.802 386.063C340.806 386.039 340.807 386.032 340.809 386.028L340.327 385.893L340.809 386.028C340.813 386.012 340.819 385.997 340.899 385.824C340.968 385.672 341.077 385.434 341.252 385.022C341.848 384.031 342.513 383.08 343.202 382.137C343.646 381.554 344.127 381.002 344.634 380.456C348.232 377.237 350.886 375.422 354.483 373.683C356.938 372.522 359.426 371.436 361.923 370.345L361.927 370.343C362.807 369.959 363.688 369.574 364.567 369.186C366.596 368.323 368.189 367.64 369.651 366.73C371.126 365.814 372.455 364.676 373.991 362.912L374.703 362.094L373.619 362.084C371.322 362.061 368.977 362.296 366.751 363.011L366.745 363.014C365.178 363.542 363.67 364.216 362.189 364.879L362.179 364.884C361.366 365.248 360.561 365.608 359.748 365.944L359.741 365.947L359.734 365.95C358.868 366.34 357.993 366.718 357.115 367.098L357.095 367.107C353.992 368.449 350.836 369.815 347.963 371.715C344.323 374.053 340.697 376.734 338.2 380.442C336.832 382.286 335.619 384.403 335.444 386.852L335.443 386.865L335.442 386.879C335.389 389.923 335.978 393.057 337.276 395.839L337.276 395.839L337.281 395.848C339.895 401.163 344.143 405.317 348.289 409.284C355.03 416.016 362.238 422.244 369.725 428.12L369.727 428.121C370.884 429.018 372.035 429.922 373.188 430.827L373.195 430.832C376.854 433.705 380.527 436.589 384.365 439.251C387.321 441.328 390.377 443.267 393.421 445.198L393.425 445.201C398.836 448.633 404.21 452.044 409.02 456.208C409.36 456.506 409.695 456.814 410.036 457.127L410.063 457.152C411.288 458.278 412.583 459.469 414.228 460.189C415.376 460.757 416.694 461.117 417.741 461.384L418.385 461.548L418.364 460.884C418.364 460.862 418.363 460.839 418.362 460.817Z" fill="black" stroke="black"/>
<g clip-path="url(#clip0_3_12758)">
<path d="M330.938 270.72C329.569 274.702 328.171 279.636 327.275 282.285C326.517 284.613 325.782 286.951 325.051 289.287C324.826 290.199 324.339 291.067 324.326 292.014C324.57 294.455 327.707 294.191 327.928 292.222C327.934 292.199 327.936 292.177 327.942 292.154C328.349 290.84 328.772 289.532 329.176 288.219C330.517 283.994 332.249 278.591 333.911 273.183C333.974 273.197 334.037 273.21 334.1 273.224C335.376 273.513 336.625 273.923 337.869 274.332C341.433 275.464 347.695 278.106 352.615 279.962C354.646 280.718 355.286 280.92 356.338 281.247C356.708 281.324 357.076 281.454 357.447 281.523C357.724 281.607 358.022 281.613 358.296 281.52C359.005 281.298 359.413 280.45 359.162 279.737C359.02 279.382 358.794 279.074 358.442 278.91C358.449 278.911 358.464 278.924 358.487 278.941C358.348 278.855 358.201 278.779 358.059 278.695C357.303 278.245 356.51 277.871 355.714 277.506C352.449 276.05 349.131 274.721 345.813 273.393C343.045 272.272 340.236 271.263 337.395 270.353C335.365 269.821 332.296 268.365 330.942 270.722L330.938 270.72Z" fill="black"/>
</g>
<g clip-path="url(#clip1_3_12758)">
<path d="M481.685 519.008C481.632 514.798 481.284 509.681 481.235 506.885C481.164 504.438 481.068 501.989 480.969 499.543C480.874 498.609 481.04 497.628 480.733 496.731C479.681 494.515 476.816 495.821 477.272 497.749C477.274 497.773 477.279 497.795 477.281 497.818C477.341 499.193 477.384 500.567 477.446 501.939C477.607 506.369 477.797 512.04 478.055 517.691C477.991 517.699 477.927 517.708 477.863 517.717C476.564 517.875 475.251 517.909 473.941 517.944C470.204 518.079 463.418 517.702 458.16 517.612C455.993 517.585 455.322 517.611 454.222 517.657C453.848 517.71 453.458 517.711 453.085 517.771C452.796 517.785 452.513 517.88 452.287 518.06C451.694 518.508 451.595 519.444 452.072 520.031C452.326 520.317 452.642 520.531 453.029 520.566C453.021 520.568 453.003 520.561 452.976 520.553C453.136 520.586 453.3 520.609 453.462 520.64C454.326 520.808 455.198 520.893 456.07 520.969C459.635 521.239 463.207 521.372 466.778 521.505C469.762 521.627 472.747 521.63 475.728 521.53C477.819 521.346 481.199 521.683 481.68 519.008L481.685 519.008Z" fill="black"/>
</g>
<defs>
<clipPath id="clip0_3_12758">
<rect width="21" height="37" fill="white" transform="translate(325.022 294.258) rotate(-108.9)"/>
</clipPath>
<clipPath id="clip1_3_12758">
<rect width="21" height="37" fill="white" transform="translate(479.321 494.853) rotate(51.4051)"/>
</clipPath>
</defs>
</svg>
